<?xml version="1.0" encoding="utf-8"?>
<svg version="1.1" id="Layer_1" xmlns="http://www.w3.org/2000/svg" xmlns:xlink="http://www.w3.org/1999/xlink" x="0px" y="0px"
	 viewBox="0 0 1024 1024" style="enable-background:new 0 0 1024 1024;" xml:space="preserve">

 
 <path d="M1012 891 L 389 4 L 993 917 L 850 653 L 593 736 Z" fill="#49a529f"/>


 
 <path d="M467 939 L 320 655 L 305 371 L 130 215 L 279 662 L 412 574 L 830 1014 L 817 545 L 881 218 Z" fill="#e027b84b"/>


 
 <path d="M15 608 L 520 708 L 381 668 L 914 930 L 283 497 L 451 533 Z" fill="#73824062"/>


 
 <path d="M950 430 L 538 305 L 320 30 L 301 497 L 700 236 L 460 288 L 986 14 L 803 151 L 761 79 L 507 1032 L 56 92 Z" fill="#5be79cb"/>


 
 <path d="M570 917 L 284 556 L 162 497 L 582 663 L 667 1003 L 498 733 L 898 607 L 77 924 L 658 127 L 855 945 Z" fill="#250b5fa"/>


 
 <path d="M776 429 L 412 71 L 551 233 L 338 333 L 157 160 L 912 902 L 820 840 L 893 1052 L 375 177 L 436 594 L 329 981 Z" fill="#7754d686"/>




  </svg>