<?xml version="1.0" encoding="utf-8"?>
<!-- Generator: Adobe Illustrator 25.2.3, SVG Export Plug-In . SVG Version: 6.00 Build 0)  -->
<svg version="1.1" id="Layer_1" xmlns="http://www.w3.org/2000/svg" xmlns:xlink="http://www.w3.org/1999/xlink" x="0px" y="0px"
	 viewBox="0 0 1024 1024" style="enable-background:new 0 0 1024 1024;" xml:space="preserve">
<style type="text/css">
	.Drop_x0020_Shadow{fill:none;}
	.Outer_x0020_Glow_x0020_5_x0020_pt{fill:none;}
	.Blue_x0020_Neon{fill:none;stroke:#8AACDA;stroke-width:7;stroke-linecap:round;stroke-linejoin:round;}
	.Chrome_x0020_Highlight{fill:url(#SVGID_1_);stroke:#FFFFFF;stroke-width:0.36286;stroke-miterlimit:1;}
	.Jive_GS{fill:#FFDD00;}
	.Alyssa_GS{fill:#A6D0E4;}
	.st0{enable-background:new    ;}
	.st1{clip-path:url(#SVGID_3_);enable-background:new    ;}
	.st2{clip-path:url(#SVGID_5_);enable-background:new    ;}
	.st3{fill:#10004F;}
	.st4{fill:#0F004C;}
	.st5{clip-path:url(#SVGID_7_);enable-background:new    ;}
	.st6{fill:#110059;}
	.st7{fill:#110056;}
	.st8{fill:#110054;}
	.st9{fill:#100051;}
	.st10{clip-path:url(#SVGID_9_);enable-background:new    ;}
	.st11{clip-path:url(#SVGID_11_);enable-background:new    ;}
	.st12{fill:#0F004A;}
	.st13{fill:#0E0047;}
	.st14{fill:#0E0045;}
	.st15{fill:#0D0042;}
	.st16{clip-path:url(#SVGID_13_);enable-background:new    ;}
	.st17{clip-path:url(#SVGID_15_);enable-background:new    ;}
	.st18{fill:#130061;}
	.st19{fill:#12005E;}
	.st20{fill:#12005B;}
	.st21{clip-path:url(#SVGID_17_);enable-background:new    ;}
	.st22{clip-path:url(#SVGID_19_);enable-background:new    ;}
	.st23{clip-path:url(#SVGID_21_);enable-background:new    ;}
	.st24{fill:#0D0043;}
	.st25{clip-path:url(#SVGID_23_);enable-background:new    ;}
	.st26{clip-path:url(#SVGID_25_);enable-background:new    ;}
	.st27{clip-path:url(#SVGID_27_);enable-background:new    ;}
	.st28{clip-path:url(#SVGID_29_);enable-background:new    ;}
	.st29{clip-path:url(#SVGID_31_);enable-background:new    ;}
	.st30{fill:#140067;}
	.st31{clip-path:url(#SVGID_33_);enable-background:new    ;}
	.st32{clip-path:url(#SVGID_35_);enable-background:new    ;}
	.st33{clip-path:url(#SVGID_37_);enable-background:new    ;}
	.st34{clip-path:url(#SVGID_39_);enable-background:new    ;}
	.st35{clip-path:url(#SVGID_41_);enable-background:new    ;}
	.st36{clip-path:url(#SVGID_43_);enable-background:new    ;}
	.st37{clip-path:url(#SVGID_45_);enable-background:new    ;}
	.st38{clip-path:url(#SVGID_47_);enable-background:new    ;}
	.st39{clip-path:url(#SVGID_49_);enable-background:new    ;}
	.st40{clip-path:url(#SVGID_51_);enable-background:new    ;}
	.st41{clip-path:url(#SVGID_53_);enable-background:new    ;}
	.st42{clip-path:url(#SVGID_55_);enable-background:new    ;}
	.st43{clip-path:url(#SVGID_57_);enable-background:new    ;}
	.st44{clip-path:url(#SVGID_59_);enable-background:new    ;}
	.st45{clip-path:url(#SVGID_61_);enable-background:new    ;}
	.st46{clip-path:url(#SVGID_63_);enable-background:new    ;}
	.st47{clip-path:url(#SVGID_65_);enable-background:new    ;}
	.st48{clip-path:url(#SVGID_67_);enable-background:new    ;}
	.st49{clip-path:url(#SVGID_69_);enable-background:new    ;}
	.st50{clip-path:url(#SVGID_71_);enable-background:new    ;}
</style>
<linearGradient id="SVGID_1_" gradientUnits="userSpaceOnUse" x1="0" y1="0" x2="6.123234e-17" y2="-1">
	<stop  offset="0" style="stop-color:#656565"/>
	<stop  offset="0.61798" style="stop-color:#1B1B1B"/>
	<stop  offset="0.62921" style="stop-color:#545454"/>
	<stop  offset="0.98315" style="stop-color:#3E3E3E"/>
</linearGradient>
<g>
	<g>
		<g class="st0">
			<g class="st0">
				<defs>
					<path id="SVGID_2_" class="st0" d="M265.09024,278.35233l-25.54913-20.48642
						c9.6277-1.32776,18.57635-10.72905,19.94659-20.97115l25.54913,20.48643
						C283.6666,267.62329,274.71796,277.0246,265.09024,278.35233z"/>
				</defs>
				<clipPath id="SVGID_3_">
					<use xlink:href="#SVGID_2_"  style="overflow:visible;"/>
				</clipPath>
				<g class="st1">
					<path d="M265.09024,278.35233l-25.54913-20.48642c1.50108-0.207,2.98564-0.61029,4.42757-1.1824l25.54915,20.48645
						C268.0759,277.74207,266.59134,278.14532,265.09024,278.35233"/>
					<path d="M269.51782,277.16995l-25.54915-20.48645c1.00975-0.40063,1.99858-0.88408,2.95753-1.44092l25.54913,20.48642
						C271.51642,276.28586,270.52756,276.76929,269.51782,277.16995"/>
					<path d="M272.47534,275.729l-25.54913-20.48642c0.658-0.3821,1.30193-0.79874,1.92888-1.24689l25.54915,20.48642
						C273.77728,274.93027,273.13336,275.34692,272.47534,275.729"/>
					<path d="M274.40424,274.48212l-25.54915-20.48642c0.53159-0.37999,1.05096-0.78264,1.55637-1.20609l25.54915,20.48645
						C275.4552,273.69949,274.93582,274.10214,274.40424,274.48212"/>
					<path d="M275.9606,273.27606l-25.54915-20.48645c0.45778-0.38354,0.9041-0.78416,1.33765-1.20047l25.54915,20.48642
						C276.86472,272.49188,276.41837,272.89249,275.9606,273.27606"/>
					<path d="M277.29825,272.07556l-25.54915-20.48642c0.4126-0.39618,0.81361-0.80658,1.20192-1.23l25.54913,20.48643
						C278.11185,271.26898,277.71085,271.67938,277.29825,272.07556"/>
					<path d="M278.50015,270.84558l-25.54913-20.48643c0.37941-0.41373,0.74669-0.83987,1.10078-1.27734l25.54915,20.48643
						C279.24686,270.00571,278.87958,270.43185,278.50015,270.84558"/>
					<path d="M279.60095,269.56824L254.0518,249.0818c0.35432-0.43776,0.69545-0.88687,1.02231-1.34621l25.54915,20.48642
						C280.29639,268.68137,279.95526,269.13046,279.60095,269.56824"/>
					<path d="M280.62326,268.22202l-25.54915-20.48642c0.33537-0.47128,0.65572-0.95335,0.95992-1.44499l25.54913,20.48643
						C281.27896,267.26868,280.95862,267.75073,280.62326,268.22202"/>
					<path d="M281.58316,266.77704l-25.54913-20.48643c0.32172-0.51994,0.62534-1.0506,0.90955-1.59055l25.54913,20.48643
						C282.2085,265.72644,281.90488,266.25708,281.58316,266.77704"/>
					<path d="M282.49271,265.18649l-25.54913-20.48643c0.31317-0.59497,0.60275-1.20122,0.86694-1.81685l25.54913,20.48642
						C283.09546,263.98526,282.80588,264.59152,282.49271,265.18649"/>
					<path d="M283.35965,263.36963l-25.54913-20.48642c0.33118-0.77182,0.62247-1.55836,0.87024-2.35593l25.54913,20.48642
						C283.98212,261.81128,283.69086,262.59781,283.35965,263.36963"/>
					<path d="M284.22989,261.0137l-25.54913-20.48642c0.36984-1.19048,0.64279-2.40547,0.80695-3.63252l25.54913,20.48643
						C284.87268,258.60825,284.59973,259.82324,284.22989,261.0137"/>
				</g>
			</g>
			<g class="st0">
				<defs>
					<path id="SVGID_4_" class="st0" d="M239.04286,231.15303c0.18625-0.24619,0.36874-0.4953,0.54732-0.74721
						c8.51649,6.82896,17.03262,13.65747,25.54913,20.48643c-0.17856,0.25189-0.36105,0.50101-0.5473,0.74719
						C256.0755,244.81052,247.55936,237.98198,239.04286,231.15303z"/>
				</defs>
				<clipPath id="SVGID_5_">
					<use xlink:href="#SVGID_4_"  style="overflow:visible;"/>
				</clipPath>
				<g class="st2">
					<path class="st3" d="M263.9863,252.41339l-25.54915-20.48643c0.38896-0.48055,0.76341-0.97354,1.12221-1.47774
						l25.54913,20.48643C264.74969,251.43985,264.37524,251.93283,263.9863,252.41339"/>
					<path class="st4" d="M265.10849,250.93565l-25.54913-20.48643c0.36809-0.51729,0.7197-1.04639,1.05356-1.58597
						l25.54913,20.48643C265.82819,249.88927,265.47659,250.41835,265.10849,250.93565"/>
				</g>
			</g>
			<g class="st0">
				<defs>
					<path id="SVGID_6_" class="st0" d="M239.04286,231.15303c8.51649,6.82895,17.03264,13.65749,25.54912,20.48643
						c-0.6824,0.90204-1.41541,1.76468-2.19183,2.58046c-0.89474-0.71744-2.08774-1.67403-2.98248-2.39146
						c-0.9487-0.76074-2.21368-1.77504-3.16241-2.53578c-0.98474-0.78961-2.29774-1.84242-3.28249-2.63203
						c-1.00279-0.80409-2.33984-1.87617-3.34264-2.68027c-1.00285-0.80414-2.34001-1.87633-3.34286-2.68047
						c-0.98497-0.78979-2.29825-1.84283-3.28322-2.63263c-0.9491-0.76103-2.21455-1.77573-3.16365-2.53676
						c-0.89525-0.71785-2.08893-1.67499-2.98418-2.39284c8.51476,6.82756,17.02917,13.65468,25.54393,20.48224
						c-0.77643,0.81578-1.59628,1.58469-2.45248,2.29927c-0.67871-0.5442-1.58365-1.26981-2.26236-1.81403
						c-0.71973-0.5771-1.67935-1.34657-2.39908-1.92368c-0.74709-0.59906-1.74321-1.39778-2.4903-1.99684
						c-0.7608-0.61006-1.77524-1.42345-2.53604-2.03351c-0.76088-0.61011-1.77541-1.4236-2.53629-2.03371
						c-0.74731-0.59923-1.74371-1.39819-2.49103-1.99742c-0.72009-0.57741-1.68021-1.34724-2.4003-1.92465
						c-0.67921-0.54463-1.58484-1.27078-2.26405-1.81541c-2.05659-1.64908-4.11313-3.29808-6.16972-4.94716
						C236.11092,234.60359,237.67798,232.95712,239.04286,231.15303z"/>
				</defs>
				<clipPath id="SVGID_7_">
					<use xlink:href="#SVGID_6_"  style="overflow:visible;"/>
				</clipPath>
				<g class="st5">
					<path class="st6" d="M258.2807,257.80841l-25.54916-20.48642c0.58366-0.41721,1.15392-0.85928,1.7088-1.3242l25.54916,20.48643
						C259.4346,256.94913,258.86435,257.3912,258.2807,257.80841"/>
					<path class="st7" d="M259.9895,256.48422l-25.54916-20.48643c0.50266-0.42113,0.99272-0.86101,1.46873-1.3181
						l25.54915,20.48643C260.98221,255.62321,260.49213,256.06308,259.9895,256.48422"/>
					<path class="st8" d="M261.45822,255.16612l-25.54915-20.48643c0.453-0.43498,0.89328-0.88557,1.31961-1.35043
						l25.54915,20.48642C262.3515,254.28055,261.91122,254.73112,261.45822,255.16612"/>
					<path class="st9" d="M262.77783,253.81567l-25.54915-20.48642c0.41653-0.45421,0.81975-0.92204,1.20847-1.4023
						l25.54915,20.48643C263.59756,252.89365,263.19437,253.36148,262.77783,253.81567"/>
					<path class="st3" d="M263.9863,252.41339l-25.54915-20.48643c0.38896-0.48055,0.76341-0.97354,1.12221-1.47774
						l25.54913,20.48643C264.74969,251.43985,264.37524,251.93283,263.9863,252.41339"/>
				</g>
			</g>
			<g class="st0">
				<defs>
					<path id="SVGID_8_" class="st0" d="M234.39851,236.03278c8.51648,6.82896,17.03264,13.65749,25.54912,20.48645
						c-0.23364,0.19501-0.47003,0.38599-0.70898,0.57275c-8.51649-6.82893-17.03264-13.65747-25.54913-20.48642
						C233.92845,236.41878,234.16484,236.2278,234.39851,236.03278z"/>
				</defs>
				<clipPath id="SVGID_9_">
					<use xlink:href="#SVGID_8_"  style="overflow:visible;"/>
				</clipPath>
				<g class="st10">
					<path class="st6" d="M258.2807,257.80841l-25.54916-20.48642c0.58366-0.41721,1.15392-0.85928,1.7088-1.3242l25.54916,20.48643
						C259.4346,256.94913,258.86435,257.3912,258.2807,257.80841"/>
				</g>
			</g>
			<g>
				<polygon points="285.03683,257.3812 259.4877,236.89476 275.33603,118.43398 300.88516,138.92041 				"/>
			</g>
			<g class="st0">
				<defs>
					<path id="SVGID_10_" class="st0" d="M243.70924,221.89043c8.51648,6.82896,17.03264,13.65749,25.54912,20.48643
						c-0.85156,3.02362-2.2774,5.91753-4.11905,8.51538c-0.89481-0.71748-2.08789-1.67415-2.9827-2.39165
						c-0.94891-0.76088-2.21411-1.77536-3.16302-2.53624c-0.98499-0.78981-2.29831-1.8429-3.28331-2.63271
						c-1.00308-0.80432-2.34052-1.87672-3.3436-2.68105c-1.00314-0.80437-2.34068-1.87686-3.34383-2.68123
						c-0.98521-0.78999-2.29884-1.84331-3.28406-2.6333c-0.94926-0.76117-2.21497-1.77605-3.16423-2.53722
						c-0.89532-0.71791-2.08908-1.67513-2.98441-2.39304C241.43181,227.80795,242.85765,224.91406,243.70924,221.89043z"/>
				</defs>
				<clipPath id="SVGID_11_">
					<use xlink:href="#SVGID_10_"  style="overflow:visible;"/>
				</clipPath>
				<g class="st11">
					<path class="st4" d="M265.10849,250.93565l-25.54913-20.48643c0.36809-0.51729,0.7197-1.04639,1.05356-1.58597
						l25.54913,20.48643C265.82819,249.88927,265.47659,250.41835,265.10849,250.93565"/>
					<path class="st12" d="M266.16205,249.34969l-25.54913-20.48643c0.35304-0.5706,0.68625-1.15292,0.99811-1.74541
						l25.54916,20.48643C266.8483,248.19676,266.51511,248.77908,266.16205,249.34969"/>
					<path class="st13" d="M267.16019,247.60428l-25.54916-20.48643c0.34363-0.65282,0.66135-1.31798,0.95119-1.99341
						l25.54915,20.48643C267.8215,246.28629,267.50378,246.95145,267.16019,247.60428"/>
					<path class="st14" d="M268.11136,245.61087l-25.54915-20.48643c0.36333-0.84666,0.68283-1.70944,0.95461-2.58423
						l25.54913,20.48642C268.79419,243.90143,268.47467,244.76421,268.11136,245.61087"/>
					<path class="st15" d="M269.06595,243.02663l-25.54913-20.48642c0.40556-1.30547,0.70485-2.63768,0.88483-3.983
						l25.54913,20.48642C269.77081,240.38895,269.47153,241.72116,269.06595,243.02663"/>
				</g>
			</g>
			<g class="st0">
				<defs>
					<path id="SVGID_12_" class="st0" d="M243.77972,221.63498c0.27406-1.01401,0.48335-2.04201,0.62192-3.07777l25.54913,20.48643
						c-0.13855,1.03577-0.34784,2.06377-0.62189,3.07777c-0.89481-0.7175-2.08792-1.67415-2.9827-2.39165
						c-0.94891-0.76088-2.21414-1.77538-3.16302-2.53625c-0.98502-0.78981-2.29834-1.8429-3.28333-2.63271
						c-1.00308-0.80432-2.34052-1.87671-3.3436-2.68103C252.29735,228.46478,248.03862,225.04999,243.77972,221.63498z"/>
				</defs>
				<clipPath id="SVGID_13_">
					<use xlink:href="#SVGID_12_"  style="overflow:visible;"/>
				</clipPath>
				<g class="st16">
					<path class="st15" d="M269.06595,243.02663l-25.54913-20.48642c0.40556-1.30547,0.70485-2.63768,0.88483-3.983
						l25.54913,20.48642C269.77081,240.38895,269.47153,241.72116,269.06595,243.02663"/>
				</g>
			</g>
			<g class="st0">
				<defs>
					<path id="SVGID_14_" class="st0" d="M225.64433,240.87672c2.84839-0.86729,5.58282-2.34633,8.04518-4.27116
						c4.81743,3.86285,9.63467,7.72548,14.4521,11.58833c0.99629,0.79887,2.32466,1.86403,3.32095,2.6629
						c0.96919,0.77715,2.26147,1.81334,3.23067,2.59048c0.46881,0.37592,1.09392,0.87715,1.56274,1.25307
						c0.89478,0.7175,1.9006,2.01141,2.98267,2.39163c-2.46234,1.92484-5.19678,3.40387-8.04517,4.27118
						c-3.40559-2.73077-6.81108-5.4614-10.21667-8.19217c-0.80238-0.64339-1.87222-1.50124-2.67461-2.14462
						c-0.78807-0.63191-1.83885-1.47447-2.62692-2.10638c-0.75938-0.60892-1.77191-1.42079-2.5313-2.02971
						c-0.71632-0.57439-1.67142-1.34021-2.38774-1.9146c-0.17894-0.14348-0.41751-0.33478-0.59645-0.47826
						c-0.18973-0.15213-0.4427-0.35498-0.63243-0.50711c-0.19695-0.15791-0.45953-0.36848-0.65648-0.5264
						c-0.20059-0.16084-0.46805-0.37531-0.66864-0.53615c-0.20067-0.1609-0.46822-0.37543-0.66888-0.53633
						c-0.19716-0.1581-0.46005-0.3689-0.65721-0.52699C226.46555,241.5352,226.05493,241.20596,225.64433,240.87672z"/>
				</defs>
				<clipPath id="SVGID_15_">
					<use xlink:href="#SVGID_14_"  style="overflow:visible;"/>
				</clipPath>
				<g class="st17">
					<path class="st18" d="M248.05443,262.05783l-25.54915-20.48643c1.64803-0.22728,3.27791-0.67004,4.86095-1.29814
						l25.54913,20.48642C251.33234,261.38779,249.70245,261.83054,248.05443,262.05783"/>
					<path class="st19" d="M252.91536,260.75967l-25.54913-20.48642c1.1087-0.43991,2.19443-0.97073,3.24731-1.58211
						l25.54915,20.48643C255.1098,259.78897,254.02408,260.31976,252.91536,260.75967"/>
					<path class="st20" d="M256.16269,259.17758l-25.54915-20.48643c0.72253-0.41956,1.4296-0.87706,2.118-1.36916
						l25.54916,20.48642C257.59229,258.30051,256.88522,258.75803,256.16269,259.17758"/>
					<path class="st6" d="M258.2807,257.80841l-25.54916-20.48642c0.58366-0.41721,1.15392-0.85928,1.7088-1.3242l25.54916,20.48643
						C259.4346,256.94913,258.86435,257.3912,258.2807,257.80841"/>
				</g>
			</g>
			<g class="st0">
				<defs>
					<path id="SVGID_16_" class="st0" d="M225.64433,240.87672c8.51651,6.82896,17.03264,13.65747,25.54915,20.48643
						c-0.08229,0.02505-0.16467,0.04959-0.24715,0.07361c-8.51649-6.82893-17.03265-13.65746-25.54915-20.4864
						C225.47968,240.92632,225.56206,240.90178,225.64433,240.87672z"/>
				</defs>
				<clipPath id="SVGID_17_">
					<use xlink:href="#SVGID_16_"  style="overflow:visible;"/>
				</clipPath>
				<g class="st21">
					<path class="st18" d="M248.05443,262.05783l-25.54915-20.48643c1.64803-0.22728,3.27791-0.67004,4.86095-1.29814
						l25.54913,20.48642C251.33234,261.38779,249.70245,261.83054,248.05443,262.05783"/>
				</g>
			</g>
			<g class="st0">
				<defs>
					<path id="SVGID_18_" class="st0" d="M222.50528,241.5714c0.97226-0.13408,1.93819-0.34315,2.89192-0.62105
						c8.51648,6.82896,17.03264,13.65749,25.54913,20.48642c-0.95372,0.27789-1.91966,0.48697-2.89191,0.62106
						C240.38968,255.91191,230.17001,247.71733,222.50528,241.5714z"/>
				</defs>
				<clipPath id="SVGID_19_">
					<use xlink:href="#SVGID_18_"  style="overflow:visible;"/>
				</clipPath>
				<g class="st22">
					<path class="st18" d="M248.05443,262.05783l-25.54915-20.48643c1.64803-0.22728,3.27791-0.67004,4.86095-1.29814
						l25.54913,20.48642C251.33234,261.38779,249.70245,261.83054,248.05443,262.05783"/>
				</g>
			</g>
			<g class="st0">
				<defs>
					<path id="SVGID_20_" class="st0" d="M248.17528,261.15421l-25.54913-20.48642
						c10.1178-1.39536,19.48752-11.24643,20.92531-21.99339l25.54913,20.48642
						C267.66281,249.90779,258.29309,259.75885,248.17528,261.15421z"/>
				</defs>
				<clipPath id="SVGID_21_">
					<use xlink:href="#SVGID_20_"  style="overflow:visible;"/>
				</clipPath>
				<g class="st23">
					<path d="M248.17528,261.15421l-25.54913-20.48642c1.57982-0.21788,3.14139-0.64191,4.65739-1.24332l25.54913,20.48642
						C251.31668,260.5123,249.7551,260.93634,248.17528,261.15421"/>
					<path d="M252.83267,259.91089l-25.54913-20.48642c1.06042-0.42067,2.09854-0.92813,3.105-1.51254l25.54915,20.48642
						C254.93123,258.98276,253.8931,259.49023,252.83267,259.91089"/>
					<path d="M255.93768,258.39835l-25.54915-20.48642c0.69-0.40065,1.36511-0.83746,2.02234-1.30727l25.54915,20.48643
						C257.3028,257.56088,256.62769,257.99771,255.93768,258.39835"/>
					<path d="M257.96002,257.09109l-25.54915-20.48643c0.55675-0.39798,1.10065-0.81964,1.62988-1.26303l25.54915,20.48642
						C259.06067,256.27145,258.51675,256.69312,257.96002,257.09109"/>
					<path d="M259.5899,255.82805l-25.54915-20.48642c0.47935-0.40163,0.94669-0.82109,1.4006-1.25696l25.54915,20.48642
						C260.53659,255.00697,260.06924,255.42642,259.5899,255.82805"/>
					<path d="M260.99051,254.57109l-25.54915-20.48642c0.43195-0.41478,0.85175-0.84441,1.25824-1.28764l25.54915,20.48642
						C261.84225,253.7267,261.42245,254.15633,260.99051,254.57109"/>
					<path d="M262.24875,253.28345l-25.54915-20.48642c0.3972-0.43312,0.78169-0.87924,1.15239-1.33722l25.54913,20.48642
						C263.03046,252.40421,262.64594,252.85033,262.24875,253.28345"/>
					<path d="M263.40112,251.94623l-25.54913-20.48642c0.37102-0.45839,0.7282-0.92863,1.07045-1.40961l25.54915,20.48642
						C264.12933,251.01759,263.77216,251.48785,263.40112,251.94623"/>
					<path d="M264.47159,250.53662l-25.54915-20.48642c0.35127-0.49367,0.68683-0.99861,1.00548-1.51361l25.54913,20.48643
						C265.15842,249.53801,264.82288,250.04297,264.47159,250.53662"/>
					<path d="M265.47705,249.02303l-25.54913-20.48643c0.33714-0.54491,0.65535-1.10104,0.95322-1.66696l25.54913,20.48643
						C266.13242,247.92197,265.81421,248.47812,265.47705,249.02303"/>
					<path d="M266.43027,247.35606l-25.54913-20.48643c0.32843-0.62396,0.63213-1.25981,0.90919-1.90553l25.54915,20.48643
						C267.06241,246.09625,266.7587,246.73209,266.43027,247.35606"/>
					<path d="M267.33948,245.45053l-25.54915-20.48643c0.34753-0.80991,0.65318-1.63536,0.91324-2.47244l25.54915,20.48643
						C267.99265,243.81517,267.68701,244.64062,267.33948,245.45053"/>
					<path d="M268.25272,242.97809l-25.54915-20.48643c0.38858-1.25081,0.67534-2.52759,0.84789-3.81726l25.54913,20.48642
						C268.92804,240.4505,268.6413,241.72728,268.25272,242.97809"/>
				</g>
			</g>
			<g>
				<polygon class="st24" points="269.95078,239.04362 244.40164,218.55721 254.68401,141.70013 280.23315,162.18657 				"/>
			</g>
			<g>
				<polygon points="269.10059,239.16081 243.55145,218.67439 253.8338,141.81732 279.38297,162.30374 				"/>
			</g>
			<g class="st0">
				<defs>
					<path id="SVGID_22_" class="st0" d="M254.68401,141.70013c0.14317-1.07014,0.20575-2.11047,0.19267-3.11569
						c8.51437,6.83379,17.03165,13.66309,25.54922,20.49289c0.01273,1.00322-0.0499,2.04138-0.19275,3.10924
						C272.56839,156.04063,262.34872,147.84608,254.68401,141.70013z"/>
				</defs>
				<clipPath id="SVGID_23_">
					<use xlink:href="#SVGID_22_"  style="overflow:visible;"/>
				</clipPath>
				<g class="st25">
					<path class="st15" d="M280.23315,162.18657l-25.54915-20.48643c0.86137-6.43848-1.19415-11.79764-5.09541-14.92585
						l25.54913,20.48643C279.039,150.38893,281.09451,155.74809,280.23315,162.18657"/>
				</g>
			</g>
			<g class="st0">
				<defs>
					<path id="SVGID_24_" class="st0" d="M254.87433,138.44261c8.51648,6.82895,17.03265,13.65749,25.54913,20.48643
						c0.00101,0.04933,0.00183,0.09875,0.00244,0.14827c-8.51758-6.82979-17.03485-13.65909-25.54922-20.49287
						C254.87607,138.53708,254.87529,138.48981,254.87433,138.44261z"/>
				</defs>
				<clipPath id="SVGID_25_">
					<use xlink:href="#SVGID_24_"  style="overflow:visible;"/>
				</clipPath>
				<g class="st26">
					<path class="st15" d="M280.23315,162.18657l-25.54915-20.48643c0.86137-6.43848-1.19415-11.79764-5.09541-14.92585
						l25.54913,20.48643C279.039,150.38893,281.09451,155.74809,280.23315,162.18657"/>
				</g>
			</g>
			<g class="st0">
				<defs>
					<path id="SVGID_26_" class="st0" d="M254.87433,138.44261c-0.06352-3.15161-0.87344-5.95338-2.27666-8.24074
						c8.51646,6.82896,17.03264,13.65749,25.54912,20.48643c1.40323,2.28735,2.21317,5.08913,2.27667,8.24072
						c-0.71631-0.57437-1.67142-1.34019-2.38776-1.91458c-0.7594-0.60893-1.77194-1.42084-2.53134-2.02977
						c-0.78815-0.63196-1.83899-1.47458-2.62711-2.10654c-0.80252-0.64348-1.87253-1.50145-2.67502-2.14493
						s-1.8725-1.50145-2.67499-2.14493c-0.78815-0.63196-1.83899-1.47458-2.62711-2.10654
						c-0.75943-0.60893-1.77197-1.42082-2.53137-2.02975c-0.71631-0.57439-1.67142-1.34021-2.38776-1.9146
						c-0.17892-0.14348-0.41751-0.33479-0.59644-0.47827c-0.1897-0.15211-0.44266-0.35492-0.63235-0.50703
						c-0.1969-0.15787-0.45941-0.36838-0.65628-0.52625c-0.2005-0.16075-0.4678-0.37509-0.66827-0.53584
						s-0.46777-0.37509-0.66827-0.53584c-0.19687-0.15787-0.45938-0.36838-0.65628-0.52625
						c-0.1897-0.15211-0.44264-0.35493-0.63234-0.50705C255.29184,138.77739,255.05327,138.58609,254.87433,138.44261z"/>
				</defs>
				<clipPath id="SVGID_27_">
					<use xlink:href="#SVGID_26_"  style="overflow:visible;"/>
				</clipPath>
				<g class="st27">
					<path class="st15" d="M280.23315,162.18657l-25.54915-20.48643c0.86137-6.43848-1.19415-11.79764-5.09541-14.92585
						l25.54913,20.48643C279.039,150.38893,281.09451,155.74809,280.23315,162.18657"/>
				</g>
			</g>
			<g class="st0">
				<defs>
					<path id="SVGID_28_" class="st0" d="M252.55739,130.13663c8.51649,6.82896,17.03264,13.65747,25.54912,20.48643
						c0.01352,0.0217,0.02695,0.04344,0.04031,0.06525c-0.89481-0.7175-2.08792-1.67415-2.9827-2.39165
						c-0.94891-0.76088-2.21411-1.77536-3.16302-2.53624c-0.98499-0.78983-2.29834-1.8429-3.28333-2.63272
						c-1.00308-0.80431-2.34052-1.87672-3.34357-2.68103c-1.00317-0.80437-2.3407-1.87686-3.34387-2.68123
						c-0.9852-0.78999-2.29883-1.84331-3.28403-2.6333c-0.94928-0.76117-2.21497-1.77606-3.16425-2.53723
						c-0.89532-0.71791-2.08908-1.67511-2.98441-2.39302C252.58429,130.18008,252.57086,130.15833,252.55739,130.13663z"/>
				</defs>
				<clipPath id="SVGID_29_">
					<use xlink:href="#SVGID_28_"  style="overflow:visible;"/>
				</clipPath>
				<g class="st28">
					<path class="st15" d="M280.23315,162.18657l-25.54915-20.48643c0.86137-6.43848-1.19415-11.79764-5.09541-14.92585
						l25.54913,20.48643C279.039,150.38893,281.09451,155.74809,280.23315,162.18657"/>
				</g>
			</g>
			<g class="st0">
				<defs>
					<path id="SVGID_30_" class="st0" d="M270.69086,104.82188l25.54913,20.48643c3.5567,2.8519,5.43079,7.73991,4.64517,13.61211
						l-25.54913-20.48643C276.12164,112.56178,274.24753,107.67377,270.69086,104.82188z"/>
				</defs>
				<clipPath id="SVGID_31_">
					<use xlink:href="#SVGID_30_"  style="overflow:visible;"/>
				</clipPath>
				<g class="st29">
					<path d="M300.88516,138.92041l-25.54913-20.48643c0.78561-5.87219-1.0885-10.7602-4.64517-13.6121l25.54916,20.48643
						C299.79669,128.1602,301.67078,133.04822,300.88516,138.92041"/>
				</g>
			</g>
			<g>
				<polygon points="153.64049,293.72238 128.09134,273.23596 239.54111,257.86591 265.09024,278.35233 				"/>
			</g>
			<g>
				<polygon class="st30" points="175.75871,272.02814 150.20958,251.5417 222.50528,241.5714 248.05443,262.05783 				"/>
			</g>
			<g>
				<polygon points="175.87958,271.12451 150.33044,250.63808 222.62614,240.66779 248.17528,261.15421 				"/>
			</g>
			<g class="st0">
				<defs>
					<path id="SVGID_32_" class="st0" d="M248.97551,127.54974l25.54915,20.48644c3.72495,2.98682,5.68259,8.10623,4.85831,14.26756
						l-25.54916-20.48642C254.65811,135.65598,252.70047,130.53658,248.97551,127.54974z"/>
				</defs>
				<clipPath id="SVGID_33_">
					<use xlink:href="#SVGID_32_"  style="overflow:visible;"/>
				</clipPath>
				<g class="st31">
					<path d="M279.38297,162.30374l-25.54916-20.48642c0.82431-6.16135-1.13333-11.28075-4.85829-14.26759l25.54915,20.48643
						C278.2496,151.02299,280.20724,156.14241,279.38297,162.30374"/>
				</g>
			</g>
			<g class="st0">
				<defs>
					<path id="SVGID_34_" class="st0" d="M252.55739,130.13663c-0.80595-1.29768-1.80405-2.42786-2.96597-3.36007l25.54915,20.48644
						c1.16193,0.93221,2.16,2.06236,2.96597,3.36005c-6.4408-5.16452-12.88132-10.32875-19.32211-15.49329
						c-1.03717-0.83167-2.07437-1.66333-3.11156-2.495c-0.24451-0.19604-0.5705-0.45746-0.815-0.6535
						c-0.24019-0.1926-0.56044-0.44939-0.80063-0.64198c-0.11711-0.0939-0.27327-0.21912-0.39038-0.31302
						c-0.1144-0.09172-0.26692-0.21404-0.38132-0.30576C253.06709,130.54535,252.74313,130.34615,252.55739,130.13663z"/>
				</defs>
				<clipPath id="SVGID_35_">
					<use xlink:href="#SVGID_34_"  style="overflow:visible;"/>
				</clipPath>
				<g class="st32">
					<path class="st15" d="M280.23315,162.18657l-25.54915-20.48643c0.86137-6.43848-1.19415-11.79764-5.09541-14.92585
						l25.54913,20.48643C279.039,150.38893,281.09451,155.74809,280.23315,162.18657"/>
				</g>
			</g>
			<g class="st0">
				<defs>
					<path id="SVGID_36_" class="st0" d="M147.13583,251.70277c0.98877,0.03654,2.01526-0.01511,3.07375-0.16107l25.54913,20.48643
						c-1.05847,0.14597-2.08496,0.1976-3.07373,0.16107C164.16847,265.36026,155.65233,258.53174,147.13583,251.70277z"/>
				</defs>
				<clipPath id="SVGID_37_">
					<use xlink:href="#SVGID_36_"  style="overflow:visible;"/>
				</clipPath>
				<g class="st33">
					<path class="st19" d="M171.27487,272.07468l-25.54913-20.48643c1.03136,0.13077,2.11034,0.16129,3.22964,0.08372
						l25.54915,20.48642C173.38522,272.23596,172.30623,272.20544,171.27487,272.07468"/>
					<path class="st18" d="M174.50453,272.15839l-25.54915-20.48642c0.4127-0.02859,0.83089-0.07188,1.2542-0.13026
						l25.54913,20.48643C175.33542,272.08652,174.91724,272.12979,174.50453,272.15839"/>
				</g>
			</g>
			<g class="st0">
				<defs>
					<path id="SVGID_38_" class="st0" d="M147.13583,251.70277c0.28653,0.10667,0.55658,0.44629,0.7951,0.63756
						c0.25282,0.20273,0.58992,0.47302,0.84274,0.67575c0.58827,0.47171,1.17659,0.94345,1.76488,1.41516
						c1.13423,0.90948,2.26849,1.81897,3.40273,2.72845c6.24797,5.00992,12.49571,10.01956,18.74368,15.02951
						c-0.00401-0.00015-0.00804-0.00031-0.01207-0.00046c-8.51651-6.82895-17.03265-13.65747-25.54915-20.48642
						C147.12778,251.70247,147.13181,251.70262,147.13583,251.70277z"/>
				</defs>
				<clipPath id="SVGID_39_">
					<use xlink:href="#SVGID_38_"  style="overflow:visible;"/>
				</clipPath>
				<g class="st34">
					<path class="st19" d="M171.27487,272.07468l-25.54913-20.48643c1.03136,0.13077,2.11034,0.16129,3.22964,0.08372
						l25.54915,20.48642C173.38522,272.23596,172.30623,272.20544,171.27487,272.07468"/>
				</g>
			</g>
			<g class="st0">
				<defs>
					<path id="SVGID_40_" class="st0" d="M270.69083,104.8218l25.54913,20.48644c-2.64688-2.12239-6.22559-3.11713-10.33344-2.55061
						l-25.54913-20.48643C264.46521,101.70468,268.04395,102.69942,270.69083,104.8218z"/>
				</defs>
				<clipPath id="SVGID_41_">
					<use xlink:href="#SVGID_40_"  style="overflow:visible;"/>
				</clipPath>
				<g class="st35">
					<path class="st18" d="M285.90652,122.75763l-25.54913-20.48643c0.38507-0.05311,0.76553-0.09249,1.14099-0.11852
						l25.54913,20.48643C286.67206,122.66513,286.29163,122.70452,285.90652,122.75763"/>
					<path class="st19" d="M287.04752,122.63911l-25.54913-20.48643c1.01865-0.0706,2.00061-0.04285,2.93927,0.07614
						l25.54916,20.48643C289.04813,122.59626,288.06616,122.5685,287.04752,122.63911"/>
					<path class="st20" d="M289.98682,122.71525l-25.54916-20.48643c0.62433,0.07914,1.22949,0.19863,1.81354,0.35638
						l25.54916,20.48643C291.21628,122.91388,290.61111,122.79439,289.98682,122.71525"/>
					<path class="st6" d="M291.80035,123.07163l-25.54916-20.48643c0.50305,0.13587,0.99045,0.30013,1.46097,0.49142
						l25.54913,20.48643C292.7908,123.37176,292.30341,123.2075,291.80035,123.07163"/>
					<path class="st7" d="M293.26129,123.56305l-25.54913-20.48643c0.43121,0.17532,0.84824,0.37336,1.25012,0.59308
						l25.54913,20.48643C294.10956,123.93641,293.6925,123.73837,293.26129,123.56305"/>
					<path class="st8" d="M294.51141,124.15614l-25.54913-20.48643c0.38318,0.2095,0.75259,0.43871,1.10739,0.68674
						l25.54913,20.48643C295.26401,124.59484,294.89459,124.36563,294.51141,124.15614"/>
					<path class="st9" d="M295.6188,124.84287l-25.54913-20.48643c0.21234,0.14845,0.41943,0.30363,0.62115,0.46535
						l25.54913,20.48643C296.03827,125.1465,295.83115,124.99132,295.6188,124.84287"/>
				</g>
			</g>
			<g class="st0">
				<defs>
					<path id="SVGID_42_" class="st0" d="M271.32617,104.03773l25.54913,20.48644
						c-2.77466-2.22488-6.52997-3.26569-10.84784-2.67021l-25.54916-20.48643
						C264.7962,100.77205,268.55151,101.81287,271.32617,104.03773z"/>
				</defs>
				<clipPath id="SVGID_43_">
					<use xlink:href="#SVGID_42_"  style="overflow:visible;"/>
				</clipPath>
				<g class="st36">
					<path d="M286.02747,121.85396l-25.54916-20.48643c0.40646-0.05606,0.80795-0.09761,1.2041-0.12505l25.54913,20.48643
						C286.83539,121.75635,286.43393,121.7979,286.02747,121.85396"/>
					<path d="M287.23154,121.72891l-25.54913-20.48643c1.0723-0.07426,2.1055-0.04504,3.09271,0.08017l25.54916,20.48643
						C289.33704,121.68388,288.30383,121.65466,287.23154,121.72891"/>
					<path d="M290.32428,121.80908l-25.54916-20.48643c0.65509,0.08309,1.28992,0.20844,1.90247,0.37388l25.54916,20.48643
						C291.61417,122.01752,290.97934,121.89217,290.32428,121.80908"/>
					<path d="M292.22675,122.18296l-25.54916-20.48643c0.52747,0.14246,1.03839,0.31462,1.53156,0.51512l25.54913,20.48643
						C293.26514,122.49758,292.75418,122.32542,292.22675,122.18296"/>
					<path d="M293.75827,122.69808l-25.54913-20.48643c0.45157,0.18359,0.88821,0.39095,1.30893,0.62097l25.54913,20.48643
						C294.64648,123.08903,294.20984,122.88168,293.75827,122.69808"/>
					<path d="M295.0672,123.31905l-25.54913-20.48643c0.40094,0.21919,0.78738,0.45899,1.15854,0.71845l25.54913,20.48643
						C295.85461,123.77805,295.46814,123.53825,295.0672,123.31905"/>
					<path d="M296.22574,124.03751l-25.54913-20.48643c0.22208,0.15524,0.43866,0.31753,0.64957,0.48665l25.54916,20.48643
						C296.6644,124.35503,296.44781,124.19275,296.22574,124.03751"/>
				</g>
			</g>
			<g class="st0">
				<defs>
					<path id="SVGID_44_" class="st0" d="M139.37906,249.13692c2.1357,1.54222,4.76923,2.45325,7.74469,2.5654
						c8.51649,6.82896,17.03264,13.65749,25.54913,20.48647c-2.97545-0.11218-5.60898-1.02322-7.74467-2.56543
						C156.4117,262.7944,147.89555,255.96587,139.37906,249.13692z"/>
				</defs>
				<clipPath id="SVGID_45_">
					<use xlink:href="#SVGID_44_"  style="overflow:visible;"/>
				</clipPath>
				<g class="st37">
					<path class="st9" d="M164.40826,269.22757l-25.54913-20.48643c0.22137,0.17751,0.44868,0.34782,0.68176,0.51076
						l25.54913,20.48642C164.85696,269.57538,164.62964,269.40506,164.40826,269.22757"/>
					<path class="st8" d="M165.09003,269.73831l-25.54913-20.48642c0.38948,0.27228,0.79501,0.52391,1.21568,0.75391
						l25.54913,20.48642C165.88504,270.26224,165.47951,270.01059,165.09003,269.73831"/>
					<path class="st7" d="M166.30571,270.49222l-25.54913-20.48642c0.44127,0.24127,0.8992,0.45872,1.37273,0.65126
						l25.54915,20.48643C167.20493,270.95096,166.74699,270.73349,166.30571,270.49222"/>
					<path class="st6" d="M167.67845,271.14349l-25.54915-20.48643c0.51677,0.2101,1.05211,0.3905,1.60468,0.53975
						l25.54913,20.48642C168.73056,271.534,168.19522,271.35358,167.67845,271.14349"/>
					<path class="st20" d="M169.28311,271.68323l-25.54913-20.48642c0.64143,0.17325,1.30608,0.30449,1.99176,0.39143
						l25.54913,20.48643C170.58919,271.98773,169.92456,271.85648,169.28311,271.68323"/>
					<path class="st19" d="M171.27487,272.07468l-25.54913-20.48643c1.03136,0.13077,2.11034,0.16129,3.22964,0.08372
						l25.54915,20.48642C173.38522,272.23596,172.30623,272.20544,171.27487,272.07468"/>
				</g>
			</g>
			<g class="st0">
				<defs>
					<path id="SVGID_46_" class="st0" d="M139.37906,249.13692c0.17937,0.13654,0.41034,0.32904,0.58621,0.47006
						c0.64072,0.51375,1.28148,1.02753,1.9222,1.54129c0.83482,0.6694,1.66968,1.33882,2.5045,2.00822
						c6.8455,5.48907,13.69072,10.97778,20.53622,16.46686c-0.00865-0.00629-0.01732-0.01254-0.02597-0.01883
						c-8.51651-6.82895-17.03265-13.65747-25.54915-20.48642C139.36172,249.12437,139.37039,249.13065,139.37906,249.13692z"/>
				</defs>
				<clipPath id="SVGID_47_">
					<use xlink:href="#SVGID_46_"  style="overflow:visible;"/>
				</clipPath>
				<g class="st38">
					<path class="st9" d="M164.40826,269.22757l-25.54913-20.48643c0.22137,0.17751,0.44868,0.34782,0.68176,0.51076
						l25.54913,20.48642C164.85696,269.57538,164.62964,269.40506,164.40826,269.22757"/>
				</g>
			</g>
			<g class="st0">
				<defs>
					<path id="SVGID_48_" class="st0" d="M165.03035,268.4538l-25.54915-20.48642c2.77487,2.22499,6.53065,3.26628,10.84924,2.6707
						l25.54913,20.48643C171.561,271.72009,167.80522,270.6788,165.03035,268.4538z"/>
				</defs>
				<clipPath id="SVGID_49_">
					<use xlink:href="#SVGID_48_"  style="overflow:visible;"/>
				</clipPath>
				<g class="st39">
					<path d="M165.03035,268.4538l-25.54913-20.48643c0.21095,0.16916,0.42757,0.33147,0.64967,0.48674l25.54915,20.48642
						C165.45793,268.78525,165.2413,268.62296,165.03035,268.4538"/>
					<path d="M165.68004,268.94052l-25.54915-20.48642c0.37122,0.25951,0.75777,0.49934,1.15877,0.7186l25.54915,20.48642
						C166.43779,269.43988,166.05125,269.20004,165.68004,268.94052"/>
					<path d="M166.83881,269.65912l-25.54915-20.48642c0.42081,0.23006,0.85754,0.43745,1.3092,0.62109l25.54915,20.48642
						C167.69633,270.09659,167.2596,269.88919,166.83881,269.65912"/>
					<path d="M168.14801,270.28021l-25.54915-20.48642c0.49323,0.20053,1.00427,0.37274,1.53183,0.51521l25.54913,20.48643
						C169.15227,270.65295,168.64124,270.48074,168.14801,270.28021"/>
					<path d="M169.67982,270.79544l-25.54913-20.48643c0.61263,0.16547,1.24754,0.29083,1.90271,0.37393l25.54915,20.48643
						C170.92737,271.08627,170.29247,270.96091,169.67982,270.79544"/>
					<path d="M171.58255,271.16937l-25.54915-20.48643c0.98729,0.12523,2.02058,0.15445,3.09296,0.08018l25.54915,20.48642
						C173.60312,271.32382,172.56984,271.29459,171.58255,271.16937"/>
					<path d="M174.67551,271.24954l-25.54915-20.48642c0.39615-0.02744,0.79762-0.06898,1.20409-0.12505l25.54913,20.48643
						C175.47311,271.18057,175.07164,271.22211,174.67551,271.24954"/>
				</g>
			</g>
			<g class="st0">
				<defs>
					<path id="SVGID_50_" class="st0" d="M164.40822,269.22754l-25.54915-20.48643c-3.90128-3.12822-5.9568-8.4874-5.09543-14.92587
						l25.54913,20.48643C158.4514,260.74014,160.50694,266.0993,164.40822,269.22754z"/>
				</defs>
				<clipPath id="SVGID_51_">
					<use xlink:href="#SVGID_50_"  style="overflow:visible;"/>
				</clipPath>
				<g class="st40">
					<path d="M164.40822,269.22754l-25.54915-20.48643c-3.90128-3.12822-5.9568-8.4874-5.09543-14.92587l25.54913,20.48643
						C158.4514,260.74014,160.50694,266.0993,164.40822,269.22754"/>
				</g>
			</g>
			<g class="st0">
				<defs>
					<path id="SVGID_52_" class="st0" d="M138.85629,248.73886c0.16241,0.13031,0.32805,0.25674,0.49678,0.37924
						c8.51649,6.82895,17.03264,13.65747,25.54913,20.48645c-0.16873-0.12253-0.33435-0.24896-0.49677-0.37927
						C156.74068,263.07938,146.52104,254.8848,138.85629,248.73886z"/>
				</defs>
				<clipPath id="SVGID_53_">
					<use xlink:href="#SVGID_52_"  style="overflow:visible;"/>
				</clipPath>
				<g class="st41">
					<path class="st9" d="M164.40826,269.22757l-25.54913-20.48643c0.22137,0.17751,0.44868,0.34782,0.68176,0.51076
						l25.54913,20.48642C164.85696,269.57538,164.62964,269.40506,164.40826,269.22757"/>
				</g>
			</g>
			<g class="st0">
				<defs>
					<path id="SVGID_54_" class="st0" d="M249.58859,126.7742l25.54913,20.48643c-2.90659-2.33066-6.83774-3.42294-11.35046-2.8006
						l-25.54915-20.48642C242.75082,123.35126,246.68199,124.44355,249.58859,126.7742z"/>
				</defs>
				<clipPath id="SVGID_55_">
					<use xlink:href="#SVGID_54_"  style="overflow:visible;"/>
				</clipPath>
				<g class="st42">
					<path d="M263.78726,144.46004l-25.54915-20.48642c0.42331-0.05838,0.84149-0.10167,1.25418-0.13026l25.54915,20.48642
						C264.62875,144.35838,264.21057,144.40167,263.78726,144.46004"/>
					<path d="M265.04144,144.32977l-25.54915-20.48642c1.11932-0.07756,2.1983-0.04704,3.22966,0.08372l25.54916,20.48643
						C267.23975,144.28275,266.16077,144.25221,265.04144,144.32977"/>
					<path d="M268.27112,144.41351l-25.54916-20.48643c0.6857,0.08694,1.35033,0.21819,1.99178,0.39143l25.54915,20.48642
						C269.62143,144.63168,268.95679,144.50044,268.27112,144.41351"/>
					<path d="M270.26288,144.80493l-25.54915-20.48642c0.55255,0.14924,1.08791,0.32964,1.60466,0.53975l25.54916,20.48643
						C271.35077,145.13458,270.81543,144.95418,270.26288,144.80493"/>
					<path d="M271.86755,145.3447l-25.54916-20.48643c0.47354,0.19254,0.93147,0.41,1.37276,0.65126l25.54915,20.48643
						C272.79901,145.75468,272.34106,145.53722,271.86755,145.3447"/>
					<path d="M273.2403,145.99596l-25.54915-20.48643c0.42067,0.23,0.8262,0.48163,1.21568,0.75391l25.54913,20.48643
						C274.0665,146.47758,273.66095,146.22595,273.2403,145.99596"/>
					<path d="M274.45596,146.74986l-25.54913-20.48643c0.23306,0.16293,0.46039,0.33326,0.68176,0.51077l25.54913,20.48642
						C274.91635,147.08311,274.68906,146.9128,274.45596,146.74986"/>
				</g>
			</g>
			<g class="st0">
				<defs>
					<path id="SVGID_56_" class="st0" d="M143.30263,291.17178l-25.54915-20.48642c2.6475,2.12286,6.22795,3.1174,10.33786,2.5506
						l25.54915,20.48642C149.53058,294.28918,145.95012,293.29465,143.30263,291.17178z"/>
				</defs>
				<clipPath id="SVGID_57_">
					<use xlink:href="#SVGID_56_"  style="overflow:visible;"/>
				</clipPath>
				<g class="st43">
					<path d="M143.30263,291.17178l-25.54914-20.48642c0.20162,0.16165,0.40866,0.31677,0.62093,0.46518l25.54914,20.48642
						C143.71129,291.48859,143.50426,291.33347,143.30263,291.17178"/>
					<path d="M143.92355,291.63696l-25.54914-20.48642c0.35472,0.24799,0.72406,0.47714,1.10718,0.68661l25.54914,20.48642
						C144.64761,292.11411,144.27827,291.88495,143.92355,291.63696"/>
					<path d="M145.03073,292.32358l-25.54914-20.48642c0.40189,0.21973,0.81895,0.41779,1.25021,0.59311l25.54913,20.48642
						C145.84967,292.74136,145.43262,292.5433,145.03073,292.32358"/>
					<path d="M146.28093,292.91669l-25.54913-20.48642c0.47064,0.19135,0.95821,0.35565,1.46143,0.49158l25.54914,20.48642
						C147.23914,293.27237,146.75159,293.10806,146.28093,292.91669"/>
					<path d="M147.74237,293.40826l-25.54914-20.48642c0.58422,0.15781,1.18956,0.27731,1.81406,0.35651l25.54915,20.48642
						C148.93193,293.68561,148.3266,293.56607,147.74237,293.40826"/>
					<path d="M149.55644,293.76477l-25.54915-20.48642c0.9394,0.11911,1.92216,0.14691,2.94165,0.07626l25.54915,20.48642
						C151.47861,293.91168,150.49583,293.88388,149.55644,293.76477"/>
					<path d="M152.49809,293.84103l-25.54915-20.48642c0.37592-0.02606,0.75683-0.06549,1.1424-0.11865l25.54915,20.48642
						C153.25491,293.77554,152.87401,293.81497,152.49809,293.84103"/>
				</g>
			</g>
			<g class="st0">
				<defs>
					<path id="SVGID_58_" class="st0" d="M115.76109,268.65042c8.51649,6.82895,17.03265,13.65747,25.54914,20.48642
						c0.5864,0.76147,1.25478,1.444,1.99626,2.03809l-25.54915-20.48645
						C117.01586,270.09442,116.34749,269.4119,115.76109,268.65042z"/>
				</defs>
				<clipPath id="SVGID_59_">
					<use xlink:href="#SVGID_58_"  style="overflow:visible;"/>
				</clipPath>
				<g class="st44">
					<path class="st15" d="M143.3027,291.17188l-25.54914-20.48642c-3.55443-2.8501-5.42723-7.73401-4.64192-13.60397
						l25.54914,20.48642C137.87547,283.43787,139.74828,288.32178,143.3027,291.17188"/>
				</g>
			</g>
			<g class="st0">
				<defs>
					<path id="SVGID_60_" class="st0" d="M115.76109,268.65042c-2.22652-2.89133-3.27126-6.92102-2.64944-11.56894
						l25.54914,20.48645c-0.62181,4.64789,0.42293,8.67758,2.64944,11.56891c-5.35863-4.29681-10.71707-8.59338-16.0757-12.8902
						c-0.33172-0.26599-0.77402-0.62064-1.10574-0.88663c-0.35175-0.28204-0.82074-0.65811-1.17249-0.94016
						c-0.36512-0.29279-0.85195-0.68311-1.21707-0.97589c-0.37184-0.29816-0.86763-0.69571-1.23947-0.99387
						c-0.37192-0.29822-0.8678-0.69583-1.23972-0.99405c-0.36534-0.29297-0.85246-0.68356-1.2178-0.9765
						c-0.35211-0.28235-0.82159-0.65878-1.17371-0.94113C116.53629,269.27203,116.05923,268.9545,115.76109,268.65042z"/>
				</defs>
				<clipPath id="SVGID_61_">
					<use xlink:href="#SVGID_60_"  style="overflow:visible;"/>
				</clipPath>
				<g class="st45">
					<path class="st15" d="M143.3027,291.17188l-25.54914-20.48642c-3.55443-2.8501-5.42723-7.73401-4.64192-13.60397
						l25.54914,20.48642C137.87547,283.43787,139.74828,288.32178,143.3027,291.17188"/>
				</g>
			</g>
			<g class="st0">
				<defs>
					<path id="SVGID_62_" class="st0" d="M142.67293,291.96274l-25.54916-20.48642
						c-3.72713-2.98862-5.68695-8.11288-4.86221-14.27759l25.54914,20.48642
						C136.98596,283.84985,138.94577,288.97415,142.67293,291.96274z"/>
				</defs>
				<clipPath id="SVGID_63_">
					<use xlink:href="#SVGID_62_"  style="overflow:visible;"/>
				</clipPath>
				<g class="st46">
					<path d="M142.67293,291.96274l-25.54915-20.48642c-3.72715-2.98862-5.68697-8.11288-4.86222-14.27759l25.54914,20.48642
						C136.98596,283.84985,138.94577,288.97415,142.67293,291.96274"/>
				</g>
			</g>
			<g>
				<polygon points="191.49156,154.43034 165.94241,133.94392 238.23811,123.97362 263.78726,144.46004 				"/>
			</g>
			<g>
				<polygon points="159.31277,254.30167 133.76364,233.81523 144.04599,156.95816 169.59514,177.4446 				"/>
			</g>
			<g class="st0">
				<defs>
					<path id="SVGID_64_" class="st0" d="M169.59514,177.4446l-25.54915-20.48643
						c1.50314-11.2354,11.32671-21.55656,21.89642-23.01424l25.54915,20.48642
						C180.92183,155.88802,171.09827,166.20918,169.59514,177.4446z"/>
				</defs>
				<clipPath id="SVGID_65_">
					<use xlink:href="#SVGID_64_"  style="overflow:visible;"/>
				</clipPath>
				<g class="st47">
					<path d="M169.59514,177.4446l-25.54915-20.48643c0.17999-1.34532,0.47926-2.67754,0.88484-3.98299l25.54913,20.48642
						C170.0744,174.76706,169.77512,176.09927,169.59514,177.4446"/>
					<path d="M170.47997,173.46159l-25.54913-20.48642c0.27177-0.8748,0.59128-1.73758,0.95459-2.58424l25.54915,20.48643
						C171.07124,171.72401,170.75174,172.58681,170.47997,173.46159"/>
					<path d="M171.43457,170.87737l-25.54915-20.48643c0.28984-0.67542,0.60757-1.34059,0.95119-1.99341l25.54915,20.48643
						C172.04213,169.53677,171.72441,170.20193,171.43457,170.87737"/>
					<path d="M172.38576,168.88396l-25.54915-20.48643c0.31187-0.59248,0.64507-1.17482,0.99812-1.74541l25.54913,20.48642
						C173.03082,167.70914,172.69762,168.29146,172.38576,168.88396"/>
					<path d="M173.38387,167.13853l-25.54913-20.48642c0.33385-0.53958,0.68546-1.06868,1.05356-1.58597l25.54915,20.48642
						C174.06934,166.06985,173.71773,166.59895,173.38387,167.13853"/>
					<path d="M174.43744,165.55257l-25.54915-20.48642c0.3588-0.50421,0.73325-0.99719,1.12221-1.47775l25.54915,20.48643
						C175.17068,164.55537,174.79622,165.04837,174.43744,165.55257"/>
					<path d="M175.55965,164.07483l-25.54915-20.48643c0.38873-0.48026,0.79193-0.94809,1.20848-1.4023l25.54913,20.48643
						C176.35158,163.12672,175.94836,163.59456,175.55965,164.07483"/>
					<path d="M176.76811,162.67253l-25.54913-20.48643c0.42632-0.46487,0.86661-0.91545,1.31961-1.35045l25.54915,20.48643
						C177.63474,161.75706,177.19444,162.20766,176.76811,162.67253"/>
					<path d="M178.08774,161.32208l-25.54915-20.48643c0.47601-0.45709,0.96608-0.89696,1.46873-1.3181l25.54915,20.48642
						C179.05382,160.42511,178.56375,160.86499,178.08774,161.32208"/>
					<path d="M179.55647,160.00397l-25.54915-20.48642c0.5549-0.46492,1.12515-0.907,1.70882-1.32422l25.54913,20.48643
						C180.68161,159.09697,180.11136,159.53906,179.55647,160.00397"/>
					<path d="M181.26527,158.67976l-25.54913-20.48643c0.6884-0.4921,1.39548-0.94958,2.118-1.36916l25.54915,20.48643
						C182.66075,157.73016,181.95369,158.18767,181.26527,158.67976"/>
					<path d="M183.38329,157.31061l-25.54915-20.48643c1.05289-0.61139,2.13863-1.14221,3.24733-1.58211l25.54915,20.48642
						C185.52191,156.1684,184.43617,156.69922,183.38329,157.31061"/>
					<path d="M186.63062,155.72849l-25.54915-20.48642c1.58304-0.62811,3.21292-1.07086,4.86095-1.29814l25.54915,20.48642
						C189.84354,154.65762,188.21365,155.10039,186.63062,155.72849"/>
				</g>
			</g>
			<g class="st0">
				<defs>
					<path id="SVGID_66_" class="st0" d="M137.16815,123.4818c8.51649,6.82896,17.03264,13.65749,25.54913,20.48644
						c-4.30267,3.93945-7.44157,9.40886-8.20816,15.13885l-25.54916-20.48642
						C129.72656,132.89069,132.86546,127.42127,137.16815,123.4818z"/>
				</defs>
				<clipPath id="SVGID_67_">
					<use xlink:href="#SVGID_66_"  style="overflow:visible;"/>
				</clipPath>
				<g class="st48">
					<path class="st15" d="M154.50912,159.1071l-25.54915-20.48643c0.16418-1.22728,0.43721-2.44261,0.80719-3.6335
						l25.54915,20.48642C154.94633,156.66449,154.67331,157.87982,154.50912,159.1071"/>
					<path class="st14" d="M155.31631,155.47359l-25.54915-20.48642c0.24791-0.79797,0.53935-1.58499,0.87076-2.35728
						l25.54913,20.48643C155.85567,153.88861,155.56422,154.67561,155.31631,155.47359"/>
					<path class="st13" d="M156.18706,153.11632l-25.54913-20.48643c0.26437-0.61612,0.5542-1.22287,0.86765-1.81836
						l25.54913,20.48643C156.74127,151.89343,156.45145,152.5002,156.18706,153.11632"/>
					<path class="st12" d="M157.0547,151.29796l-25.54913-20.48643c0.28444-0.54041,0.58835-1.07152,0.91034-1.59193
						l25.54915,20.48643C157.64305,150.22643,157.33916,150.75755,157.0547,151.29796"/>
					<path class="st4" d="M157.96506,149.70602l-25.54915-20.48643c0.30446-0.49207,0.62508-0.97455,0.96075-1.44625
						l25.54913,20.48643C158.59013,148.73148,158.2695,149.21396,157.96506,149.70602"/>
					<path class="st3" d="M158.9258,148.25977l-25.54913-20.48643c0.32712-0.45971,0.66852-0.90918,1.02313-1.34731
						l25.54915,20.48643C159.59431,147.35059,159.25291,147.80006,158.9258,148.25977"/>
					<path class="st9" d="M159.94894,146.91246l-25.54915-20.48643c0.35434-0.43778,0.72188-0.86423,1.10156-1.27824
						l25.54913,20.48642C160.67082,146.04823,160.30328,146.47469,159.94894,146.91246"/>
					<path class="st8" d="M161.05049,145.63422l-25.54913-20.48642c0.38852-0.42366,0.78976-0.83429,1.20258-1.2307
						l25.54915,20.48643C161.84027,144.79994,161.43903,145.21057,161.05049,145.63422"/>
					<path class="st7" d="M162.25308,144.40353l-25.54915-20.48643c0.4337-0.41646,0.88017-0.81721,1.33812-1.2009
						l25.54913,20.48642C163.13326,143.5863,162.68678,143.98708,162.25308,144.40353"/>
				</g>
			</g>
			<g>
				<path class="st30" d="M285.90652,122.75763c9.62772-1.32777,16.34894,5.92062,14.9787,16.16273L285.03687,257.3812
					c-1.37024,10.2421-10.31894,19.64346-19.94666,20.97122l-111.44978,15.37006
					c-9.62758,1.32773-16.34988-5.91245-14.97964-16.15457l15.84834-118.4608c1.37024-10.24211,10.32004-19.65169,19.94762-20.97943
					L285.90652,122.75763z M269.95078,239.04362l10.28238-76.85706c1.50311-11.2354-5.87616-19.1841-16.44586-17.72643
					l-72.29572,9.97031c-10.56972,1.45767-20.39323,11.77881-21.89636,23.01419l-10.28236,76.85707
					c-1.50313,11.2354,5.87614,19.1841,16.44586,17.72643l72.29572-9.97031
					C258.62415,260.60016,268.44766,250.27902,269.95078,239.04362"/>
			</g>
			<g>
				<path d="M263.78726,144.46004c10.56973-1.45767,17.94904,6.49104,16.44592,17.72646l-10.28238,76.85707
					c-1.50311,11.2354-11.32669,21.55656-21.89641,23.01424l-72.2957,9.97031c-10.56973,1.45767-17.94905-6.49103-16.44592-17.72644
					l10.28236-76.85707c1.50313-11.23541,11.32669-21.55658,21.89642-23.01425L263.78726,144.46004z M269.10059,239.16081
					l10.28238-76.85707c1.43884-10.755-5.59882-18.33527-15.71661-16.93993l-72.2957,9.97031
					c-10.11797,1.39537-19.4787,11.23714-20.91756,21.99214l-10.28236,76.85707
					c-1.43779,10.74696,5.5909,18.33653,15.70885,16.94118l72.2957-9.97031
					C258.29309,259.75885,267.66281,249.90779,269.10059,239.16081"/>
			</g>
			<g>
				<polygon class="st30" points="174.45674,138.12767 148.90759,117.64124 260.35739,102.27119 285.90652,122.75763 				"/>
			</g>
			<g>
				<polygon points="174.57768,137.224 149.02855,116.73757 260.4783,101.36753 286.02747,121.85396 				"/>
			</g>
			<g>
				<polygon class="st24" points="138.66078,277.5679 113.11164,257.08148 128.95998,138.62067 154.50912,159.1071 				"/>
			</g>
			<g>
				<polygon points="137.8107,277.68515 112.26156,257.19873 128.10989,138.73793 153.65903,159.22437 				"/>
			</g>
			<g class="st0">
				<defs>
					<path id="SVGID_68_" class="st0" d="M137.16815,123.4818c3.3882-3.10217,7.49805-5.25563,11.73944-5.84056l25.54913,20.48643
						c-4.24138,0.58493-8.35124,2.73839-11.73943,5.84056C154.20079,137.1393,145.68465,130.31076,137.16815,123.4818z"/>
				</defs>
				<clipPath id="SVGID_69_">
					<use xlink:href="#SVGID_68_"  style="overflow:visible;"/>
				</clipPath>
				<g class="st49">
					<path class="st7" d="M162.25308,144.40353l-25.54915-20.48643c0.4337-0.41646,0.88017-0.81721,1.33812-1.2009
						l25.54913,20.48642C163.13326,143.5863,162.68678,143.98708,162.25308,144.40353"/>
					<path class="st6" d="M163.59119,143.20262l-25.54913-20.48642c0.5056-0.42363,1.02519-0.82644,1.55698-1.20657
						l25.54915,20.48643C164.61639,142.37619,164.0968,142.77901,163.59119,143.20262"/>
					<path class="st20" d="M165.14818,141.99606l-25.54915-20.48643c0.6268-0.44803,1.27054-0.86456,1.92833-1.24654
						l25.54915,20.48643C166.4187,141.1315,165.77496,141.54803,165.14818,141.99606"/>
					<path class="st19" d="M167.07651,140.74953l-25.54915-20.48643c0.95845-0.55656,1.94673-1.03977,2.95589-1.44021
						l25.54913,20.48643C169.02324,139.70976,168.03496,140.19296,167.07651,140.74953"/>
					<path class="st18" d="M170.03238,139.30933l-25.54913-20.48643c1.44093-0.57177,2.92441-0.97479,4.42435-1.18165
						l25.54915,20.48643C172.9568,138.33452,171.47331,138.73755,170.03238,139.30933"/>
				</g>
			</g>
			<g class="st0">
				<defs>
					<path id="SVGID_70_" class="st0" d="M153.65903,159.22437l-25.54913-20.48643
						c1.43887-10.75518,10.80843-20.60606,20.91866-22.00036l25.54913,20.48643
						C164.46745,138.6183,155.09792,148.46918,153.65903,159.22437z"/>
				</defs>
				<clipPath id="SVGID_71_">
					<use xlink:href="#SVGID_70_"  style="overflow:visible;"/>
				</clipPath>
				<g class="st50">
					<path d="M153.65903,159.22437l-25.54913-20.48643c0.17278-1.29153,0.45993-2.57004,0.849-3.82242l25.54915,20.48643
						C154.11897,156.65433,153.83182,157.93283,153.65903,159.22437"/>
					<path d="M154.50804,155.40195l-25.54915-20.48643c0.26031-0.83794,0.56625-1.66417,0.91409-2.47481l25.54913,20.48642
						C155.0743,153.73776,154.76836,154.56401,154.50804,155.40195"/>
					<path d="M155.42212,152.92712l-25.54913-20.48642c0.27731-0.64632,0.58127-1.28271,0.90997-1.90721l25.54913,20.48643
						C156.0034,151.64441,155.69945,152.28081,155.42212,152.92712"/>
					<path d="M156.33209,151.01993l-25.54913-20.48643c0.29807-0.5663,0.61649-1.1228,0.95383-1.66803l25.54915,20.48642
						C156.94858,149.89713,156.63017,150.45363,156.33209,151.01993"/>
					<path d="M157.28593,149.35188l-25.54915-20.48642c0.3188-0.51524,0.6545-1.02042,1.00592-1.51428l25.54915,20.48643
						C157.94043,148.33147,157.60472,148.83664,157.28593,149.35188"/>
					<path d="M158.29185,147.83762l-25.54915-20.48643c0.34236-0.48112,0.69963-0.95149,1.07074-1.40998l25.54913,20.48643
						C158.99149,146.88611,158.63422,147.35649,158.29185,147.83762"/>
					<path d="M159.36258,146.42763l-25.54913-20.48643c0.37073-0.45804,0.75526-0.90421,1.15248-1.33734l25.54915,20.48643
						C160.11784,145.52342,159.73332,145.96959,159.36258,146.42763"/>
					<path d="M160.51508,145.09029l-25.54915-20.48643c0.40648-0.44323,0.82625-0.87283,1.25813-1.28754l25.54915,20.48643
						C161.34132,144.21747,160.92155,144.64705,160.51508,145.09029"/>
					<path d="M161.77321,143.80275l-25.54915-20.48643c0.45381-0.43577,0.92101-0.85512,1.40021-1.25661l25.54915,20.48643
						C162.6942,142.94763,162.22702,143.36697,161.77321,143.80275"/>
					<path d="M163.17342,142.54613l-25.54915-20.48643c0.52913-0.44333,1.07292-0.86488,1.62952-1.26276l25.54915,20.48643
						C164.24632,141.68124,163.70255,142.1028,163.17342,142.54613"/>
					<path d="M164.80293,141.28337l-25.54915-20.48643c0.65675-0.46947,1.33136-0.90594,2.0208-1.30627l25.54913,20.48643
						C166.13429,140.37743,165.45969,140.8139,164.80293,141.28337"/>
					<path d="M166.82372,139.9771l-25.54913-20.48643c1.00557-0.58389,2.04269-1.09089,3.10202-1.51115l25.54913,20.48643
						C168.86642,138.8862,167.8293,139.3932,166.82372,139.9771"/>
					<path d="M169.92574,138.46594l-25.54913-20.48643c1.51439-0.6008,3.07414-1.02435,4.65195-1.24194l25.54913,20.48643
						C172.99989,137.44159,171.44014,137.86514,169.92574,138.46594"/>
				</g>
			</g>
			<g>
				<path d="M286.02747,121.85396c10.11795-1.39537,17.14682,6.194,15.70792,16.94919l-15.84833,118.4608
					c-1.43884,10.755-10.80084,20.60483-20.91879,22.00021l-111.44977,15.37003
					c-10.11023,1.39432-17.14665-6.19403-15.70779-16.94904l15.84833-118.46078
					c1.43889-10.75519,10.80843-20.60606,20.91866-22.00037L286.02747,121.85396z M285.03683,257.3812l15.84833-118.46078
					c1.37027-10.24228-5.35092-17.49044-14.97861-16.16268l-111.44978,15.37003
					c-9.6277,1.32776-18.57741,10.73711-19.94768,20.97937l-15.84833,118.4608c-1.37024,10.2421,5.35202,17.48221,14.97972,16.15445
					l111.44975-15.37006C274.71796,277.0246,283.6666,267.62329,285.03683,257.3812"/>
			</g>
		</g>
	</g>
</g>
<g>
</g>
<g>
</g>
<g>
</g>
<g>
</g>
<g>
</g>
<g>
</g>
<g>
</g>
<g>
</g>
<g>
</g>
<g>
</g>
<g>
</g>
<g>
</g>
<g>
</g>
<g>
</g>
<g>
</g>
</svg>
