<?xml version="1.0" encoding="utf-8"?>
<!-- Generator: Adobe Illustrator 25.2.3, SVG Export Plug-In . SVG Version: 6.00 Build 0)  -->
<svg version="1.1" id="Layer_1" xmlns="http://www.w3.org/2000/svg" xmlns:xlink="http://www.w3.org/1999/xlink" x="0px" y="0px"
	 viewBox="0 0 1024 1024" style="enable-background:new 0 0 1024 1024;" xml:space="preserve">
<style type="text/css">
	.st0{fill:#FFFF00;}
</style>
<g>
	<g>
		<path class="st0" d="M470.82596,115.79008c3.29773-16.76463,13.43307-31.9294,27.57343-41.47259
			c3.96524-2.67609,8.29993-4.98206,12.66196-6.64313c-1.31253-0.99983-2.62506-1.99967-3.93756-2.99951
			c0.36606,6.52961,0.73212,13.05921,1.09814,19.58881c0.33804,6.02962,0.49515,12.10124,1.07431,18.1132
			c0.44824,4.65295,1.26755,9.47953,3.69278,13.55782c2.74237,4.61157,7.48138,7.47775,12.8764,7.57736
			c5.87708,0.1085,11.44336-2.71587,16.39484-5.58868c5.03711-2.92248,9.95062-6.05585,14.75055-9.35279
			c9.82703-6.74994,19.1889-14.16846,28.25708-21.90149c10.09723-8.61061,19.83636-17.62836,29.56793-26.64669
			c-1.73303-1.00882-3.466-2.01765-5.19904-3.02647c-1.47229,6.65558-2.68976,13.36546-3.6297,20.11705
			c-0.48486,3.4822-0.91498,6.97162-1.26654,10.46988c-0.31549,3.13928-0.6778,6.26242-0.17804,9.40159
			c0.96051,6.03317,6.09924,9.36361,11.94714,9.30659c2.61902-0.02554,5.25452-0.55795,7.77246-1.24881
			c3.27313-0.89806,6.52991-1.86079,9.79364-2.7924c13.4502-3.83926,26.90039-7.67851,40.35059-11.51777
			c2.57428-0.73481,5.85577-2.07777,8.49634-0.89971c0.59814,0.26686,1.22717,0.77633,1.48773,1.35447
			c0.40698,0.90311-0.1405,2.72103-0.32764,3.87476c-0.4516,2.78403-0.19971,5.95156,2.04102,7.9622
			c2.85864,2.56511,6.45978,1.31843,9.28772-0.53875c11.03223-7.24524,21.81744-15.74517,35.01154-18.54062
			c1.6441-0.34835,2.59851-2.27642,2.17255-3.82644c-0.4679-1.70273-2.17749-2.52195-3.82642-2.17259
			c-11.44824,2.42556-21.3526,8.95129-30.89893,15.40813c-1.18103,0.79882-2.36127,1.59885-3.54547,2.39293
			c-1.19427,0.80081-2.41345,1.81699-3.73865,2.38876c-0.14966,0.06458-0.63422,0.38074-0.6283,0.13781
			c0.00262-0.1095,0.40369,0.23076,0.39313,0.22655c0.22791,0.09031-0.21881-0.45277-0.05444-0.02339
			c-0.36963-0.96558-0.26331-1.52547-0.04053-2.72114c0.62592-3.35947,0.80579-6.49754-1.57062-9.23895
			c-1.90942-2.20271-4.89551-3.24854-7.74628-3.31937c-3.37823-0.08393-6.71637,1.12235-9.92102,2.03709
			c-3.25812,0.93001-6.51624,1.86001-9.77435,2.79002c-6.34918,1.81232-12.6983,3.62464-19.04749,5.43696
			c-6.46356,1.84498-12.91486,3.742-19.39319,5.53443c-2.27344,0.62901-4.24524,1.08006-6.47491,1.07641
			c-1.13477-0.00186-1.51111-0.01583-2.62085-0.35843c-0.82062-0.25333-1.35938-0.52658-2.01416-1.31806
			c-1.52301-1.84106-1.25006-4.93164-1.05414-7.35472c0.2854-3.53031,0.68542-7.05489,1.13849-10.56726
			c0.94531-7.32778,2.26276-14.61026,3.85834-21.82337c0.67249-3.0402-2.87671-5.17859-5.19904-3.02647
			c-16.3999,15.19786-32.84747,30.48306-50.97693,43.62867c-4.52069,3.27792-9.13922,6.42245-13.86914,9.39106
			c-4.5321,2.84451-9.21918,6.02019-14.33649,7.70252c-2.12512,0.69861-4.41992,1.20905-6.66302,0.84927
			c-2.05762-0.33002-3.71271-1.34888-4.91919-2.62544c-2.35846-2.4955-3.4726-6.8699-3.95081-10.37222
			c-0.83856-6.14098-0.85822-12.44479-1.20477-18.62759c-0.39044-6.96491-0.78094-13.92982-1.17139-20.89474
			c-0.10284-1.83518-1.93265-3.76298-3.93756-2.99951c-17.44754,6.64401-31.98257,20.29594-39.67294,37.33084
			c-2.19202,4.85552-3.87878,9.89983-4.90759,15.13004c-0.32394,1.64676,0.46786,3.35804,2.17258,3.82644
			C468.52747,118.38251,470.50012,117.44652,470.82596,115.79008L470.82596,115.79008z"/>
	</g>
</g>
<g>
	<g>
		<path class="st0" d="M640.39838,160.19698c1.06769-1.78345,2.20087-3.52612,3.40778-5.21863
			c0.3175-0.44522,0.63977-0.88705,0.96674-1.32541c0.1308-0.17532,0.26288-0.34964,0.39459-0.52432
			c0.43134-0.57217,0.10419-0.1369,0.01385-0.02118c0.6731-0.86215,1.36328-1.71078,2.07178-2.5441
			c2.69257-3.1669,5.63983-6.11621,8.80188-8.81436c0.74921-0.63931,1.51611-1.25552,2.28278-1.87357
			c0.82037-0.66138-0.36224,0.26889,0.14777-0.1185c0.21777-0.16541,0.435-0.33148,0.65381-0.49542
			c0.43768-0.32791,0.87891-0.65109,1.32336-0.96973c1.68878-1.21078,3.427-2.353,5.2085-3.4227
			c0.84387-0.50674,1.69757-0.99719,2.56049-1.47076c0.47943-0.26315,0.96173-0.52109,1.44678-0.77374
			c0.19403-0.10107,0.38831-0.20175,0.58344-0.30066c0.14099-0.07376,0.28326-0.1449,0.42682-0.21338
			c0.2431-0.11612,0.17798-0.08841-0.19531,0.0831c0.74725-0.09647-0.02893-0.04544-0.12646-0.04916
			c-0.66925-0.0256-1.90936-1.25305-1.87878-1.2634c-0.02441-0.05515-0.04889-0.11026-0.0733-0.16541
			c0.05701,0.19885,0.10565,0.39975,0.14587,0.60269c0.05859,0.26028,0.10931,0.52301,0.16394,0.78424
			c0.27319,1.30707,0.54639,2.61414,0.81964,3.92123c1.17474,5.62042,2.34955,11.24084,3.52435,16.86127
			c0.48914,2.34015,3.54907,3.46997,5.50873,2.24112c11.39105-7.14288,23.12286-13.73801,35.15381-19.74136
			c3.39606-1.69464,6.8161-3.34076,10.2569-4.94263c-1.71027-0.44843-3.42047-0.89688-5.13074-1.34531
			c0.13196,0.2048,0.25977,0.40976,0.3764,0.62372c0.10901,0.20007,0.35272,0.80969,0.04987,0.01462
			c0.15375,0.4035,0.28845,0.80981,0.39539,1.22861c0.05438,0.21292,0.36456,1.05762,0.25562,1.28094
			c0.10742-0.22018-0.05927-0.6337-0.02673-0.11935c0.02197,0.34756,0.05774,0.69397,0.07617,1.04196
			c0.1015,1.91492,0.01166,3.83569,0.14935,5.74915c0.33514,4.65775,2.14667,9.06927,6.492,11.32962
			c3.7818,1.96716,8.09497,2.16415,12.27246,2.20267c4.78961,0.04416,9.57935,0.08319,14.3692,0.08444
			c19.27576,0.00513,38.62524-0.62897,57.65363-3.94254c10.44751-1.81931,20.74414-4.50854,30.64008-8.33899
			c1.82336-0.70578,3.28638-2.55118,2.6192-4.61295c-0.57422-1.77423-2.6543-3.37729-4.61298-2.61914
			c-8.62897,3.34003-17.56543,5.81839-26.64154,7.59912c-2.23785,0.43906-4.48383,0.83667-6.73572,1.19678
			c-1.09705,0.17542-2.1955,0.34192-3.29523,0.49991c-0.55029,0.07907-1.10083,0.15616-1.65173,0.23096
			c0.63098-0.08569,0.00317-0.00085-0.10571,0.01309c-0.36798,0.04715-0.73578,0.09534-1.10382,0.14169
			c-4.61267,0.58072-9.24237,1.02167-13.87933,1.35538c-9.26251,0.6666-18.55066,0.90607-27.83521,0.96271
			c-4.67273,0.0285-9.34552,0.01025-14.01813-0.02454c-2.24115-0.01669-4.48309-0.02216-6.72394-0.06024
			c-0.88416-0.01501-1.76843-0.04593-2.65021-0.11346c-0.20355-0.01559-1.79889-0.1362-0.77179-0.056
			c-0.48108-0.03757-0.97046-0.15451-1.44165-0.25787c-0.46771-0.1026-0.93195-0.22391-1.38806-0.37003
			c-0.17963-0.05756-0.35553-0.12665-0.5351-0.18396c-0.7948-0.25357,0.534,0.31079-0.13196-0.05862
			c-0.44537-0.24704-0.86938-0.49838-1.30188-0.76727c-0.44824-0.27869,0.60175,0.61673,0.00861-0.01157
			c-0.18835-0.19949-0.39056-0.39676-0.58655-0.58838c-0.16174-0.15826-0.31958-0.52756,0.05682,0.09659
			c-0.15088-0.25024-0.32245-0.48087-0.4649-0.73737c-0.09338-0.16818-0.17255-0.34003-0.25995-0.51071
			c0.41235,0.80502,0.03613,0.05515-0.03485-0.16666c-0.16254-0.50745-0.24524-1.02121-0.36938-1.53702
			c-0.13855-0.57529,0.07355,0.93204-0.00739-0.0173c-0.02521-0.29575-0.05603-0.59061-0.07562-0.88693
			c-0.3031-4.57864,0.33215-9.38788-2.28943-13.45646c-1.17346-1.82123-3.22107-2.23434-5.13068-1.34531
			c-12.18915,5.67463-24.10388,11.93314-35.68475,18.7645c-3.26904,1.92834-6.51038,3.90314-9.72589,5.91949
			c1.83624,0.74704,3.67249,1.49405,5.50873,2.24109c-1.14746-5.48972-2.29498-10.97943-3.44244-16.46915
			c-0.27319-1.30707-0.54639-2.61417-0.81964-3.92123c-0.3327-1.59192-0.65802-3.14826-1.86285-4.34992
			c-2.65765-2.65048-6.07843-1.17764-8.86346,0.30325c-8.17664,4.34782-15.64447,10.20612-21.84906,17.07813
			c-3.58197,3.96725-6.79553,8.29321-9.54095,12.87921c-1.00861,1.68469-0.43231,4.19156,1.34528,5.13074
			C637.08093,162.50032,639.32172,161.99544,640.39838,160.19698L640.39838,160.19698z"/>
	</g>
</g>
<g>
	<g>
		<path class="st0" d="M489.4494,187.86763c1.84787-1.76534,3.76843-3.45299,5.76099-5.05341
			c0.24554-0.19725,0.49213-0.39322,0.73978-0.58784c0.11005-0.08652,0.22052-0.17253,0.33081-0.25873
			c0.43481-0.33987-0.09079,0.0743-0.15057,0.11626c0.54324-0.38123,1.06052-0.80403,1.59625-1.19635
			c1.04474-0.76509,2.10602-1.50768,3.18274-2.2271c4.19135-2.80051,8.61621-5.25102,13.21127-7.32327
			c0.57452-0.25906,1.1521-0.51096,1.73126-0.75938c0.16638-0.07138,0.56531-0.2142-0.18555,0.07808
			c0.13019-0.0507,0.25867-0.10788,0.38788-0.16125c0.32361-0.13361,0.64795-0.2654,0.97302-0.39531
			c1.20276-0.48067,2.41577-0.93584,3.63782-1.36508c2.41077-0.84677,4.85699-1.59264,7.33051-2.23357
			c2.43927-0.63205,4.90503-1.16211,7.38885-1.58649c0.58649-0.1002,1.17401-0.19444,1.76239-0.28281
			c0.31152-0.0468,0.62335-0.09111,0.93524-0.13542c0.56262-0.07996-0.16187,0.02257-0.22821,0.02988
			c0.20856-0.02299,0.41675-0.05423,0.62494-0.0802c1.22974-0.15332,2.49036-0.35118,3.73102-0.36421
			c-0.01636,0.00018,0.39026,0.02354,0.40381,0.0083c-0.01569,0.01759-0.82135-0.08505-0.16968-0.00449
			c0.39185,0.04843-0.67529-0.40138-0.13983-0.04807c-0.04437-0.02928-0.58508-0.53214-0.25763-0.17288
			c-0.03796-0.04167-0.42297-0.67644-0.19843-0.24599c0.03308,0.06334,0.10449,0.24069,0.15948,0.30182
			c-0.3609-0.4012-0.23029-0.59338-0.11353-0.19072c0.04163,0.14336,0.07672,0.2883,0.10748,0.43434
			c0.03094,0.14729,0.05237,0.29576,0.07867,0.44379c0.07776,0.43719-0.08942-0.87134-0.03522-0.2345
			c0.0285,0.33554,0.07239,0.67047,0.10742,1.0054c0.08344,0.79616,0.16284,1.5927,0.23834,2.38963
			c0.28998,3.06187,0.52136,6.12927,0.69391,9.20001c0.16412,2.91951,0.23169,5.83968,0.33807,8.76122
			c0.09235,2.53815,0.42163,5.02345,1.43298,7.36552c1.08313,2.50845,3.38873,4.54099,6.11505,5.03084
			c3.22321,0.57913,6.22101-0.47998,9.21515-1.54578c5.68555-2.02385,11.36066-4.07707,17.02496-6.15967
			c11.40735-4.19414,22.771-8.50687,34.08844-12.9377c1.40497-0.55003,2.80914-1.10196,4.21271-1.65552
			c0.80347-0.31693,1.46448-0.70142,1.91644-1.47374c0.40228-0.68738,0.57269-1.70042,0.3233-2.47105
			c-0.48822-1.50865-2.27399-2.89879-3.94476-2.23981c-11.38434,4.49001-22.815,8.86217-34.29071,13.11319
			c-5.73779,2.12549-11.48676,4.2209-17.24658,6.28613c-1.42023,0.50925-2.84106,1.01663-4.26263,1.52219
			c-1.29211,0.45952-2.58429,0.94475-3.92902,1.23001c-0.18024,0.03824-0.36273,0.06512-0.54285,0.10275
			c-0.46436,0.09706,0.82178-0.04564,0.09436-0.01613c-0.28693,0.01166-0.57074,0.03763-0.85852,0.03218
			c-0.14203-0.00272-0.28253-0.01678-0.42419-0.02072c-0.70367-0.01962,0.55273,0.14102,0.12177,0.01041
			c-0.13385-0.04056-0.27478-0.06195-0.40979-0.10085c-0.10229-0.02794-0.20337-0.05997-0.30316-0.09605
			c0.40009,0.18155,0.49036,0.22047,0.27081,0.11668c-0.22711-0.12141-0.4447-0.24767-0.66522-0.37981
			c-0.24078-0.14426-0.17542-0.30643,0.26398,0.2133c-0.06238-0.07381-0.16528-0.14114-0.23822-0.2092
			c-0.19141-0.17867-0.34351-0.40315-0.53424-0.57823c0.02899,0.02658,0.46332,0.67883,0.22076,0.26729
			c-0.08075-0.13704-0.17316-0.26703-0.25269-0.40524c-0.10748-0.1869-0.19824-0.38136-0.29584-0.57326
			c-0.2251-0.44273,0.12433,0.28371,0.13025,0.31413c-0.02509-0.12886-0.09979-0.26408-0.14288-0.38945
			c-0.17548-0.50974-0.3089-1.03333-0.41394-1.56181c-0.04529-0.22781-0.08063-0.45694-0.12036-0.68571
			c-0.10913-0.62897,0.07849,0.68355,0.03156,0.24472c-0.01556-0.1456-0.03381-0.29089-0.04846-0.43658
			c-0.05255-0.52171-0.08704-1.04515-0.11078-1.56889c-0.1319-2.90829-0.17224-5.81888-0.33112-8.72676
			c-0.16772-3.07101-0.39423-6.13878-0.67938-9.20111c-0.15466-1.66058-0.30597-3.32457-0.53735-4.97649
			c-0.2099-1.49879-0.78265-2.95996-1.90601-4.01346c-1.42578-1.33707-3.33514-1.59167-5.20325-1.41919
			c-1.47113,0.1358-2.93634,0.31898-4.40009,0.51801c-2.53198,0.34425-5.04877,0.7908-7.54279,1.34785
			c-4.95343,1.10641-9.81262,2.63248-14.51251,4.54831c-9.87827,4.02667-19.01453,9.58189-27.03735,16.6268
			c-0.94708,0.83162-1.875,1.68448-2.78629,2.55508c-1.21542,1.16115-1.25638,3.38182,0,4.53514
			C486.21851,189.06493,488.15271,189.10645,489.4494,187.86763L489.4494,187.86763z"/>
	</g>
</g>
<g>
	<g>
		<path class="st0" d="M170.82236,203.80687c3.29773-16.76463,13.43307-31.9294,27.57343-41.47258
			c3.96523-2.6761,8.29991-4.98206,12.66196-6.64313c-1.31252-0.99983-2.62505-1.99968-3.93756-2.99951
			c0.36604,6.5296,0.7321,13.0592,1.09816,19.58882c0.33801,6.0296,0.49515,12.10123,1.0743,18.11319
			c0.44823,4.65295,1.26755,9.47952,3.69279,13.55782c2.74237,4.61157,7.48137,7.47775,12.87636,7.57736
			c5.87709,0.10851,11.44336-2.71585,16.39487-5.58867c5.03712-2.92249,9.95059-6.05585,14.75052-9.35278
			c9.82706-6.74995,19.18893-14.16847,28.25708-21.9015c10.09723-8.6106,19.83643-17.62836,29.56799-26.64668
			c-1.73303-1.00882-3.46603-2.01765-5.19907-3.02647c-1.47229,6.65558-2.68973,13.36546-3.62973,20.11705
			c-0.4848,3.48221-0.91495,6.97162-1.26651,10.46988c-0.31546,3.1393-0.67776,6.26242-0.17801,9.4016
			c0.96045,6.03317,6.09924,9.3636,11.94711,9.30658c2.61899-0.02554,5.25452-0.55795,7.77246-1.24881
			c3.27316-0.89806,6.52988-1.86078,9.79364-2.79239c13.45016-3.83926,26.90036-7.67851,40.35059-11.51778
			c2.57428-0.7348,5.85577-2.07777,8.49634-0.8997c0.59814,0.26686,1.22717,0.77632,1.4877,1.35446
			c0.40698,0.90311-0.14047,2.72104-0.32761,3.87477c-0.4516,2.78403-0.19971,5.95157,2.04102,7.96219
			c2.85864,2.56511,6.45975,1.31844,9.28769-0.53874c11.03223-7.24524,21.8175-15.74518,35.01157-18.54062
			c1.64413-0.34834,2.59854-2.27643,2.17258-3.82645c-0.46796-1.70273-2.17749-2.52194-3.82645-2.17258
			c-11.44824,2.42555-21.35257,8.95128-30.89893,15.40811c-1.18106,0.79883-2.36127,1.59885-3.5455,2.39293
			c-1.19424,0.80081-2.41342,1.817-3.73859,2.38876c-0.14966,0.06458-0.63422,0.38074-0.62836,0.1378
			c0.00262-0.1095,0.40375,0.23076,0.39313,0.22656c0.22797,0.0903-0.21878-0.45277-0.05441-0.02339
			c-0.36963-0.96558-0.26331-1.52548-0.04053-2.72113c0.62592-3.35948,0.80579-6.49754-1.57062-9.23895
			c-1.90939-2.20271-4.89548-3.24854-7.74631-3.31937c-3.3782-0.08392-6.71631,1.12234-9.92099,2.03709
			c-3.25812,0.93001-6.51624,1.86-9.77435,2.79001c-6.34915,1.81232-12.6983,3.62465-19.04749,5.43697
			c-6.46359,1.84497-12.91486,3.742-19.39319,5.53442c-2.27344,0.62901-4.24521,1.08006-6.47488,1.07642
			c-1.1348-0.00186-1.51114-0.01584-2.62088-0.35843c-0.82062-0.25333-1.35938-0.52658-2.01416-1.31805
			c-1.52301-1.84106-1.25003-4.93166-1.05414-7.35474c0.28543-3.5303,0.68539-7.05489,1.13849-10.56726
			c0.94531-7.32777,2.26273-14.61026,3.85834-21.82336c0.67252-3.04019-2.87674-5.17859-5.19907-3.02647
			c-16.39984,15.19786-32.84744,30.48306-50.9769,43.62868c-4.52066,3.27791-9.13921,6.42244-13.86911,9.39105
			c-4.53217,2.84451-9.21918,6.02019-14.33655,7.70253c-2.12509,0.69861-4.41989,1.20905-6.66299,0.84927
			c-2.05762-0.33003-3.71271-1.34889-4.91917-2.62544c-2.35849-2.49551-3.47261-6.8699-3.95084-10.37222
			c-0.83853-6.14098-0.85817-12.44479-1.20477-18.62759c-0.39046-6.9649-0.78091-13.92982-1.17136-20.89473
			c-0.10289-1.83517-1.93266-3.76299-3.93756-2.99951c-17.44757,6.64401-31.98257,20.29594-39.67294,37.33084
			c-2.19202,4.85553-3.8788,9.89983-4.90762,15.13004c-0.32393,1.64676,0.46788,3.35803,2.17259,3.82645
			C168.52388,206.39929,170.49652,205.4633,170.82236,203.80687L170.82236,203.80687z"/>
	</g>
</g>
<g>
	<g>
		<path class="st0" d="M340.39474,248.21376c1.06769-1.78345,2.2009-3.52612,3.40781-5.21863
			c0.3175-0.44522,0.63977-0.88705,0.96674-1.32541c0.13077-0.17532,0.26291-0.34964,0.39456-0.52432
			c0.43137-0.57217,0.10422-0.1369,0.01389-0.02118c0.67307-0.86215,1.36328-1.71078,2.07178-2.5441
			c2.69257-3.1669,5.63986-6.11621,8.80185-8.81436c0.74924-0.63931,1.51611-1.25552,2.28278-1.87357
			c0.82043-0.66138-0.36218,0.26889,0.1478-0.1185c0.21777-0.16541,0.43497-0.33148,0.65384-0.49542
			c0.43768-0.32791,0.87888-0.65109,1.32333-0.96973c1.68878-1.21078,3.427-2.353,5.20847-3.4227
			c0.8439-0.50674,1.6976-0.99719,2.56052-1.47076c0.47946-0.26315,0.96176-0.52109,1.44681-0.77374
			c0.194-0.10107,0.38831-0.20175,0.5834-0.30066c0.14096-0.07376,0.28323-0.1449,0.42682-0.21338
			c0.2431-0.11612,0.17801-0.08841-0.19534,0.0831c0.74725-0.09647-0.0289-0.04544-0.1264-0.04916
			c-0.66928-0.0256-1.90942-1.25305-1.87881-1.2634c-0.02444-0.05515-0.04886-0.11026-0.0733-0.16541
			c0.05701,0.19885,0.10565,0.39975,0.14587,0.60269c0.05862,0.26028,0.10934,0.52301,0.16394,0.78424
			c0.27319,1.30707,0.54642,2.61414,0.81961,3.92123c1.1748,5.62042,2.34961,11.24084,3.52438,16.86127
			c0.48917,2.34015,3.54907,3.46997,5.50876,2.24112c11.39102-7.14288,23.12283-13.73801,35.15375-19.74136
			c3.39609-1.69464,6.8161-3.34076,10.25693-4.94263c-1.71027-0.44843-3.4205-0.89688-5.13074-1.34531
			c0.13196,0.2048,0.25974,0.40976,0.37637,0.62372c0.10907,0.20007,0.35278,0.80969,0.04993,0.01462
			c0.15369,0.4035,0.28845,0.80981,0.39536,1.22861c0.05435,0.21292,0.36456,1.05762,0.25565,1.28094
			c0.10739-0.22018-0.05927-0.6337-0.02676-0.11935c0.02197,0.34756,0.05774,0.69397,0.07617,1.04196
			c0.1015,1.91492,0.01166,3.83569,0.14935,5.74915c0.33514,4.65775,2.1467,9.06927,6.49203,11.32962
			c3.78174,1.96716,8.09494,2.16415,12.27243,2.20267c4.78961,0.04416,9.57935,0.08319,14.36917,0.08444
			c19.27582,0.00513,38.62524-0.62897,57.65363-3.94254c10.44754-1.81931,20.74417-4.50854,30.64011-8.33899
			c1.82336-0.70578,3.28638-2.55118,2.6192-4.61295c-0.57422-1.77423-2.6543-3.37729-4.61298-2.61914
			c-8.62897,3.34003-17.56543,5.81839-26.64154,7.59912c-2.23788,0.43906-4.4838,0.83667-6.73569,1.19678
			c-1.09708,0.17542-2.19553,0.34192-3.29526,0.49991c-0.55026,0.07907-1.10086,0.15616-1.65173,0.23096
			c0.63095-0.08569,0.00317-0.00085-0.10574,0.01309c-0.36792,0.04715-0.73572,0.09534-1.10376,0.14169
			c-4.6127,0.58072-9.24243,1.02167-13.87936,1.35538c-9.26254,0.6666-18.55063,0.90607-27.83524,0.96271
			c-4.67267,0.0285-9.34552,0.01025-14.0181-0.02454c-2.24112-0.01669-4.48306-0.02216-6.72394-0.06024
			c-0.88412-0.01501-1.7684-0.04593-2.65024-0.11346c-0.20349-0.01559-1.79886-0.1362-0.77176-0.056
			c-0.48108-0.03757-0.97049-0.15451-1.44162-0.25787c-0.46777-0.1026-0.93195-0.22391-1.38806-0.37003
			c-0.17969-0.05756-0.35553-0.12665-0.53513-0.18396c-0.7948-0.25357,0.53403,0.31079-0.13196-0.05862
			c-0.44537-0.24704-0.86938-0.49838-1.30188-0.76727c-0.44821-0.27869,0.60178,0.61673,0.00861-0.01157
			c-0.18835-0.19949-0.39059-0.39676-0.58652-0.58838c-0.1618-0.15826-0.31958-0.52756,0.05682,0.09659
			c-0.15094-0.25024-0.32248-0.48087-0.4649-0.73737c-0.09338-0.16818-0.17258-0.34003-0.26001-0.51071
			c0.41238,0.80502,0.03619,0.05515-0.03485-0.16666c-0.16251-0.50745-0.24521-1.02121-0.36938-1.53702
			c-0.13849-0.57529,0.07355,0.93204-0.00739-0.0173c-0.02521-0.29575-0.056-0.59061-0.07559-0.88693
			c-0.30307-4.57864,0.33212-9.38788-2.2894-13.45645c-1.17349-1.82123-3.22107-2.23434-5.13071-1.34531
			c-12.18915,5.67462-24.10391,11.93314-35.68475,18.7645c-3.26904,1.92834-6.51041,3.90314-9.72592,5.91949
			c1.83627,0.74704,3.67252,1.49405,5.50876,2.24109c-1.14749-5.48972-2.29495-10.97943-3.44244-16.46915
			c-0.27319-1.30707-0.54642-2.61417-0.81961-3.92123c-0.33273-1.59192-0.65802-3.14825-1.86292-4.34991
			c-2.65765-2.65048-6.0784-1.17764-8.86346,0.30325c-8.17664,4.34781-15.64444,10.20612-21.84903,17.07812
			c-3.58194,3.96725-6.7955,8.29321-9.54099,12.87921c-1.00854,1.68469-0.43225,4.19156,1.34534,5.13074
			C337.07733,250.51711,339.31808,250.01222,340.39474,248.21376L340.39474,248.21376z"/>
	</g>
</g>
<g>
	<g>
		<path class="st0" d="M189.44582,275.88443c1.84784-1.76535,3.76843-3.453,5.76096-5.05341
			c0.24554-0.19727,0.49214-0.39322,0.73978-0.58786c0.11006-0.08652,0.22054-0.17252,0.33081-0.25873
			c0.43484-0.33987-0.09076,0.07431-0.15054,0.11627c0.54323-0.38123,1.06052-0.80405,1.59624-1.19635
			c1.04475-0.76511,2.10603-1.50769,3.18275-2.22711c4.19133-2.80051,8.61618-5.25101,13.21127-7.32327
			c0.57451-0.25906,1.15207-0.51096,1.73122-0.75937c0.1664-0.07138,0.56535-0.2142-0.18552,0.07806
			c0.13019-0.05069,0.25867-0.10788,0.38791-0.16125c0.32358-0.13361,0.64792-0.26541,0.97301-0.39532
			c1.20274-0.48065,2.41573-0.93582,3.63779-1.36505c2.41077-0.84679,4.85703-1.59265,7.33054-2.23358
			c2.43925-0.63205,4.90501-1.16211,7.38885-1.58647c0.58649-0.10022,1.174-0.19446,1.76237-0.28282
			c0.31152-0.0468,0.62337-0.09111,0.93526-0.13542c0.56264-0.07996-0.16191,0.02258-0.2282,0.02989
			c0.20851-0.02299,0.41675-0.05423,0.62492-0.0802c1.22974-0.15332,2.49034-0.3512,3.731-0.36421
			c-0.01636,0.00018,0.39024,0.02353,0.40381,0.00829c-0.01566,0.01759-0.82137-0.08504-0.16969-0.00449
			c0.39189,0.04845-0.67529-0.40137-0.13982-0.04807c-0.04437-0.02928-0.58508-0.53212-0.25761-0.17287
			c-0.03796-0.04169-0.423-0.67645-0.19841-0.246c0.03304,0.06334,0.10446,0.24071,0.15945,0.30182
			c-0.36089-0.4012-0.23032-0.59337-0.11351-0.19072c0.04161,0.14336,0.07674,0.2883,0.10745,0.43434
			c0.03098,0.14729,0.0524,0.29576,0.0787,0.44379c0.07771,0.43721-0.08943-0.87134-0.03526-0.23448
			c0.02856,0.33553,0.0724,0.67046,0.10748,1.0054c0.08342,0.79614,0.16284,1.59268,0.23831,2.38962
			c0.28996,3.06186,0.52135,6.12927,0.69392,9.20001c0.16408,2.91953,0.2317,5.83966,0.33804,8.76123
			c0.09239,2.53815,0.42163,5.02344,1.43298,7.36551c1.08316,2.50845,3.38876,4.54099,6.11507,5.03085
			c3.22324,0.5791,6.22104-0.47998,9.21515-1.54578c5.68558-2.02386,11.36066-4.07709,17.02499-6.15967
			c11.40729-4.19415,22.771-8.5069,34.08844-12.93771c1.40491-0.55002,2.80911-1.10196,4.21265-1.65552
			c0.80353-0.31693,1.46454-0.70142,1.9165-1.47372c0.40225-0.68738,0.57266-1.70044,0.32327-2.47107
			c-0.48822-1.50867-2.27396-2.89877-3.94479-2.23981c-11.38431,4.48999-22.81497,8.86218-34.29065,13.11319
			c-5.73782,2.12549-11.48682,4.22092-17.24661,6.28613c-1.42023,0.50925-2.84109,1.01663-4.26263,1.52219
			c-1.29214,0.45953-2.58429,0.94476-3.92903,1.23001c-0.18021,0.03824-0.36273,0.06512-0.54285,0.10275
			c-0.46432,0.09705,0.82178-0.04565,0.09439-0.01611c-0.28697,0.01166-0.57076,0.03763-0.85855,0.03217
			c-0.14203-0.00272-0.2825-0.01678-0.42416-0.02072c-0.70369-0.01962,0.55269,0.14102,0.12172,0.01041
			c-0.1338-0.04056-0.27475-0.06195-0.40977-0.10083c-0.10231-0.02795-0.20335-0.05997-0.30315-0.09607
			c0.40007,0.18155,0.49034,0.22046,0.27081,0.11667c-0.22711-0.1214-0.4447-0.24765-0.66522-0.37979
			c-0.2408-0.14426-0.17543-0.30643,0.26399,0.21332c-0.06242-0.07382-0.16533-0.14114-0.23824-0.2092
			c-0.19141-0.17868-0.34352-0.40317-0.53421-0.57825c0.02896,0.02658,0.46327,0.67883,0.22073,0.26727
			c-0.08078-0.13702-0.17316-0.26703-0.25266-0.40521c-0.1075-0.18692-0.19829-0.38138-0.29584-0.57327
			c-0.22511-0.44275,0.1243,0.28372,0.13022,0.31415c-0.0251-0.12888-0.09976-0.2641-0.1429-0.38947
			c-0.17549-0.50974-0.3089-1.03333-0.41394-1.56183c-0.04527-0.22778-0.08064-0.45694-0.12033-0.6857
			c-0.10913-0.62897,0.07848,0.68353,0.03152,0.24472c-0.01558-0.1456-0.03377-0.29089-0.04843-0.43658
			c-0.05257-0.5217-0.08704-1.04514-0.11079-1.56888c-0.13188-2.90829-0.17226-5.81888-0.33109-8.72678
			c-0.16776-3.07101-0.39426-6.13876-0.67943-9.20111c-0.15462-1.66057-0.30594-3.32457-0.53731-4.97647
			c-0.20996-1.49879-0.78267-2.95996-1.90605-4.01346c-1.42577-1.33707-3.33511-1.59167-5.20323-1.4192
			c-1.47113,0.13582-2.93631,0.31898-4.40005,0.51801c-2.53203,0.34425-5.0488,0.7908-7.54279,1.34785
			c-4.95349,1.10641-9.81262,2.63249-14.51251,4.54832c-9.8783,4.02666-19.01456,9.58189-27.03738,16.62679
			c-0.94708,0.83163-1.875,1.68448-2.78629,2.55508c-1.21544,1.16116-1.25638,3.38184,0,4.53516
			C186.2149,277.08173,188.14911,277.12323,189.44582,275.88443L189.44582,275.88443z"/>
	</g>
</g>
</svg>
