<?xml version="1.0" encoding="utf-8"?>
<!-- Generator: Adobe Illustrator 25.2.3, SVG Export Plug-In . SVG Version: 6.00 Build 0)  -->
<svg version="1.1" id="Layer_1" xmlns="http://www.w3.org/2000/svg" xmlns:xlink="http://www.w3.org/1999/xlink" x="0px" y="0px"
	 viewBox="0 0 1024 1024" style="enable-background:new 0 0 1024 1024;" xml:space="preserve">
<style type="text/css">
	.Drop_x0020_Shadow{fill:none;}
	.Outer_x0020_Glow_x0020_5_x0020_pt{fill:none;}
	.Blue_x0020_Neon{fill:none;stroke:#8AACDA;stroke-width:7;stroke-linecap:round;stroke-linejoin:round;}
	.Chrome_x0020_Highlight{fill:url(#SVGID_1_);stroke:#FFFFFF;stroke-width:0.36286;stroke-miterlimit:1;}
	.Jive_GS{fill:#FFDD00;}
	.Alyssa_GS{fill:#A6D0E4;}
	.st0{fill:#29ABE2;}
</style>
<linearGradient id="SVGID_1_" gradientUnits="userSpaceOnUse" x1="0" y1="0" x2="6.123234e-17" y2="-1">
	<stop  offset="0" style="stop-color:#656565"/>
	<stop  offset="0.61798" style="stop-color:#1B1B1B"/>
	<stop  offset="0.62921" style="stop-color:#545454"/>
	<stop  offset="0.98315" style="stop-color:#3E3E3E"/>
</linearGradient>
<g>
	<g>
		<path class="st0" d="M148.04784,126.34774c4.37254-3.35895,9.14288-6.13099,14.21182-8.29836
			c-0.5972,0.25202-1.1944,0.50404-1.7916,0.75607c5.34453-2.24445,10.93964-3.78748,16.68077-4.59002
			c-0.66461,0.0893-1.32921,0.1786-1.9938,0.26791c5.5867-0.74367,11.22052-0.76411,16.81102-0.04708
			c-0.6646-0.0893-1.32919-0.1786-1.99379-0.26791c5.8289,0.78651,11.50925,2.34488,16.93112,4.62328
			c-0.5972-0.25202-1.1944-0.50404-1.7916-0.75607c2.9563,1.26458,5.82254,2.72533,8.56677,4.4023
			c1.31102,0.80116,2.59363,1.6497,3.84323,2.54367c0.34082,0.24383,0.6794,0.49087,1.0154,0.74132
			c0.45544,0.33949,1.33557,1.29377-0.18726-0.15311c0.60033,0.57039,1.31134,1.05815,1.94412,1.59547
			c1.54349,1.31067,3.21657,2.1967,5.3033,2.1967c1.83949,0,4.0368-0.81706,5.3033-2.1967
			c2.56415-2.79324,3.19348-7.89484,0-10.6066c-9.71599-8.25036-21.44543-14.15803-34.04218-16.40529
			c-12.55864-2.24046-25.62482-1.36758-37.62506,3.09406c-6.71417,2.49629-13.06816,5.77869-18.75636,10.14829
			c-1.62065,1.24497-2.88052,2.42624-3.4467,4.48224c-0.49438,1.79528-0.27116,4.18587,0.75606,5.77919
			c1.03246,1.60142,2.56987,3.01112,4.48224,3.4467C144.09181,127.51907,146.49007,127.5444,148.04784,126.34774
			L148.04784,126.34774z"/>
	</g>
</g>
<g>
	<g>
		<path class="st0" d="M110.24733,203.75101c-1.50519,9.05699-1.14272,18.23619,1.3924,27.09248
			c2.51283,8.77844,6.92751,16.82819,12.81599,23.78394c3.29462,3.89174,7.16925,7.2141,11.34494,10.12953
			c1.52052,1.06161,4.05141,1.23187,5.77919,0.75607c1.7397-0.4791,3.625-1.82422,4.48224-3.44672
			c2.02695-3.83643,0.75264-7.85733-2.69064-10.26141c-0.50748-0.35432-1.00529-0.72034-1.5051-1.0853
			c-0.99138-0.72392,1.18631,0.94574,0.49054,0.38008c-0.23961-0.19482-0.48238-0.38554-0.72092-0.58176
			c-0.95317-0.78403-1.87688-1.6042-2.76978-2.45622c-1.74742-1.6674-3.32413-3.46927-4.85976-5.32979
			c-0.53253-0.6452,1.20879,1.60954,0.37892,0.49313c-0.14734-0.19821-0.29628-0.39517-0.4424-0.5943
			c-0.36534-0.49786-0.72234-1.00198-1.07034-1.51212c-0.69643-1.02087-1.35838-2.06516-1.98499-3.13033
			c-1.25493-2.13327-2.35605-4.35071-3.32333-6.62828c0.25202,0.5972,0.50404,1.1944,0.75606,1.7916
			c-1.85906-4.45937-3.14803-9.12041-3.81989-13.9055c0.0893,0.6646,0.1786,1.32919,0.26791,1.99379
			c-0.60526-4.53792-0.64404-9.11742-0.06526-13.6602c-0.0893,0.6646-0.1786,1.32919-0.26791,1.99379
			c0.08284-0.61322,0.17487-1.22449,0.27631-1.8349c0.3401-2.0464,0.32915-3.92473-0.75606-5.77919
			c-0.91042-1.55574-2.69425-3.03944-4.48224-3.4467C115.85315,197.68819,110.9351,199.61252,110.24733,203.75101
			L110.24733,203.75101z"/>
	</g>
</g>
<g>
	<g>
		<path class="st0" d="M353.72067,83.15841c0.3338-0.26819,0.66809-0.53576,1.00406-0.80125
			c0.22183-0.17529,1.25662-0.97828,0.25333-0.2044c-1.00333,0.7739,0.03494-0.0247,0.26016-0.19553
			c0.34116-0.25873,0.68356-0.51583,1.02716-0.77129c1.20258-0.89412,2.42081-1.7672,3.65329-2.61961
			c2.52374-1.74546,5.10825-3.40273,7.74661-4.96951c5.27875-3.13477,10.7735-5.89203,16.42834-8.28098
			c-0.5972,0.25202-1.1944,0.50404-1.7916,0.75606c7.77383-3.25488,15.8287-5.78136,24.07349-7.52985
			c3.84354-0.81511,6.43387-5.53147,5.23831-9.22589c-1.31277-4.0566-5.10797-6.11159-9.22589-5.23829
			c-16.49976,3.49914-32.49857,10.10989-46.65982,19.27434c-4.37289,2.82993-8.55444,5.9381-12.61404,9.19961
			c-1.40259,1.12685-2.19672,3.58842-2.19672,5.3033c0,1.83951,0.81708,4.03681,2.19672,5.3033
			c1.42929,1.31208,3.30582,2.28617,5.30328,2.1967C350.52435,85.26074,352.0863,84.47148,353.72067,83.15841L353.72067,83.15841z"
			/>
	</g>
</g>
<g>
	<g>
		<path class="st0" d="M535.13116,102.80753c20.68701,5.05008,41.37402,10.10016,62.06097,15.15024
			c5.8761,1.43446,11.7522,2.86892,17.62823,4.30338c3.80481,0.92881,8.30835-1.20979,9.22589-5.2383
			c0.8808-3.86713-1.16119-8.2306-5.23828-9.22589c-20.68701-5.05008-41.37402-10.10016-62.06097-15.15024
			c-5.8761-1.43446-11.7522-2.86892-17.62823-4.30338c-3.80481-0.92881-8.30835,1.20979-9.22589,5.2383
			C529.01208,97.44877,531.05408,101.81224,535.13116,102.80753L535.13116,102.80753z"/>
	</g>
</g>
<g>
	<g>
		<path class="st0" d="M823.6051,54.79967c18.44507-0.28164,36.90253,0.49195,55.25732,2.34137
			c5.19745,0.5237,10.38562,1.13497,15.56342,1.82631c-0.66455-0.0893-1.32916-0.17861-1.99377-0.26791
			c8.25146,1.11036,16.47235,2.4324,24.65576,3.96583c2.01349,0.37729,3.95966,0.3087,5.77917-0.75606
			c1.55579-0.91041,3.03949-2.69425,3.44672-4.48223c0.84003-3.68793-1.11481-8.45322-5.23828-9.22589
			c-25.12036-4.70711-50.62128-7.51883-76.16992-8.2602c-7.09821-0.20597-14.20013-0.24962-21.30042-0.1412
			c-3.92078,0.05987-7.68335,3.40682-7.5,7.5C816.28479,51.3119,819.40198,54.86385,823.6051,54.79967L823.6051,54.79967z"/>
	</g>
</g>
<g>
	<g>
		<path class="st0" d="M904.08777,127.44505c-0.98248,6.29048-0.71259,12.71489,1.56207,18.7274
			c2.22589,5.88365,5.63239,11.34248,10.51422,15.39223c1.56976,1.30222,3.19312,2.1967,5.30328,2.1967
			c1.83954,0,4.0368-0.81706,5.30334-2.1967c2.53809-2.76491,3.22443-7.93173,0-10.6066
			c-0.87732-0.72777-1.71606-1.49689-2.50055-2.32443c-0.39136-0.41283-0.76978-0.83771-1.13538-1.27348
			c-0.16254-0.1937-0.31805-0.39305-0.47961-0.58746c-0.53534-0.64435,1.16766,1.61441,0.37109,0.46005
			c-1.30273-1.88789-2.42493-3.84056-3.31873-5.95641c0.25201,0.5972,0.50403,1.1944,0.75604,1.7916
			c-0.95947-2.35408-1.62708-4.79193-1.99274-7.30783c0.08929,0.6646,0.17859,1.32919,0.26794,1.99379
			c-0.33258-2.51854-0.35132-5.04257-0.03082-7.5634c-0.08929,0.66461-0.17859,1.32921-0.26788,1.9938
			c0.03369-0.25108,0.07104-0.50165,0.11188-0.75166c0.32208-2.06183,0.33887-3.90813-0.75604-5.77919
			c-0.9104-1.55576-2.69427-3.03945-4.48224-3.4467c-1.91992-0.43729-4.07501-0.34266-5.77917,0.75607
			C906.00067,123.95169,904.3822,125.5599,904.08777,127.44505L904.08777,127.44505z"/>
	</g>
</g>
<g>
	<g>
		<path class="st0" d="M845.3075,239.16925c-2.57391,1.06128-4.55859,2.13457-6.67157,3.99043
			c-1.55341,1.36433-2.8761,3.11176-3.89471,4.90361c-2.11328,3.71745-3.17194,8.0813-3.1712,12.34686
			c0.00153,8.90967,4.84344,17.02393,11.71869,22.45374c3.95538,3.12387,8.14423,5.65866,12.71844,7.77002
			c1.87549,0.86569,3.71588,1.32425,5.77917,0.75607c1.73969-0.4791,3.625-1.82422,4.48224-3.44672
			c1.74677-3.30603,1.1123-8.50607-2.69061-10.26141c-1.9436-0.89713-3.85925-1.85443-5.71515-2.92252
			c-0.90173-0.51898-1.78912-1.06274-2.65729-1.63623c-0.43225-0.28552-0.85962-0.57822-1.28143-0.87891
			c-0.21014-0.14978-0.41486-0.30817-0.62659-0.45554c-0.69818-0.48605,1.54626,1.24713,0.44647,0.34915
			c-1.58063-1.29062-3.07544-2.66977-4.39056-4.23447c-0.05505-0.06549-0.41693-0.59485-0.47949-0.58731
			c0.10022-0.01208,1.08472,1.50089,0.48688,0.61108c-0.31793-0.47321-0.6488-0.93488-0.94849-1.42038
			c-0.5459-0.88437-1.02936-1.80392-1.44708-2.75546c0.25201,0.5972,0.50403,1.1944,0.75604,1.7916
			c-0.61389-1.47504-1.0202-2.99777-1.24786-4.57852c0.08936,0.66461,0.17865,1.32919,0.26794,1.9938
			c-0.21503-1.69672-0.21619-3.39038-0.00165-5.08722c-0.08929,0.66461-0.17859,1.32919-0.26788,1.9938
			c0.22412-1.55878,0.62311-3.06076,1.23004-4.51472c-0.25201,0.5972-0.50403,1.19441-0.75604,1.79161
			c0.32874-0.74631,0.69843-1.47031,1.13843-2.15775c0.16241-0.25374,0.35291-0.49197,0.51282-0.74643
			c-1.29297,2.05716-0.71228,0.89578-0.21429,0.36319c0.27405-0.29311,0.57031-0.55757,0.85974-0.83437
			c0.84448-0.80745-1.61108,1.11096-0.57568,0.4265c0.68762-0.45459,1.37573-0.86067,2.13055-1.19611
			c-0.59723,0.25201-1.1944,0.50404-1.79163,0.75606c0.09644-0.03976,0.19287-0.07953,0.28937-0.11929
			c1.88574-0.77754,3.40997-1.61441,4.48218-3.4467c0.9408-1.6076,1.33936-3.97687,0.7561-5.77919
			c-0.58728-1.81477-1.71191-3.56566-3.44672-4.48222C849.42871,239.04935,847.12695,238.41904,845.3075,239.16925
			L845.3075,239.16925z"/>
	</g>
</g>
<g>
	<g>
		<path class="st0" d="M831.10938,497.63303c7.36414,5.63367,15.54034,9.9306,24.20734,13.19421
			c1.72369,0.64908,4.24646,0.1409,5.77924-0.75604c1.55573-0.9104,3.03943-2.69424,3.44666-4.48224
			c0.43732-1.91992,0.34271-4.07498-0.75604-5.77921c-1.11255-1.72565-2.56287-2.72394-4.48224-3.44669
			c-1.11157-0.41858-2.21472-0.85733-3.31012-1.3165c0.59717,0.25201,1.1944,0.50403,1.79156,0.75604
			c-6.81213-2.89218-13.2276-6.62488-19.10565-11.12164c-1.43591-1.09848-4.12915-1.21045-5.77917-0.75607
			c-1.73969,0.4791-3.625,1.82422-4.48224,3.44672c-0.91962,1.7406-1.38062,3.84921-0.75604,5.77917
			C828.30469,495.13474,829.46814,496.37747,831.10938,497.63303L831.10938,497.63303z"/>
	</g>
</g>
<g>
	<g>
		<path class="st0" d="M871.02411,600.44275c-3.6958,3.80798-7.65137,7.34753-11.84326,10.60132
			c0.50598-0.39093,1.0119-0.78186,1.51788-1.17273c-3.00159,2.31348-6.11279,4.47479-9.32898,6.47931
			c-3.32745,2.07379-4.92871,6.79004-2.69067,10.26141c2.15015,3.33496,6.6994,4.91064,10.26147,2.69061
			c8.24255-5.13715,15.9248-11.28265,22.69019-18.2533c2.73492-2.81793,3.01538-7.83856,0-10.60663
			C878.67358,597.72815,873.94336,597.43494,871.02411,600.44275L871.02411,600.44275z"/>
	</g>
</g>
<g>
	<g>
		<path class="st0" d="M727.06702,671.46118c-5.84906,11.66553-5.94922,25.28149-1.70514,37.50629
			c4.16846,12.00696,11.8844,22.18628,20.83209,31.06897c4.7981,4.76331,9.92645,9.17627,15.05426,13.57703
			c1.53156,1.31439,3.22729,2.19672,5.30334,2.19672c1.83948,0,4.0368-0.81708,5.30328-2.19672
			c2.57599-2.80615,3.17926-7.87811,0-10.60657c-6.37573-5.47174-12.76331-10.96869-18.49615-17.12567
			c-1.41107-1.51544-2.78088-3.06964-4.09515-4.66998c-0.36194-0.44067-0.71552-0.88788-1.07275-1.33234
			c-0.86975-1.08203,1.01654,1.36523,0.12744,0.16473c-0.63641-0.85919-1.27155-1.71771-1.88031-2.59692
			c-2.3515-3.396-4.39282-6.98071-6.0249-10.77704c0.25201,0.59717,0.50403,1.1944,0.75604,1.79156
			c-1.76923-4.20215-3.03186-8.58685-3.67322-13.10358c0.08936,0.66461,0.17865,1.32916,0.26794,1.99377
			c-0.50165-3.77197-0.55573-7.5694-0.05328-11.34442c-0.08929,0.66461-0.17859,1.32922-0.26788,1.99384
			c0.42365-2.93835,1.1795-5.7934,2.30627-8.54126c-0.25201,0.59717-0.50409,1.1944-0.7561,1.79156
			c0.31903-0.75122,0.66046-1.48956,1.02631-2.21924c1.75635-3.50293,1.04657-8.28687-2.69067-10.26141
			C733.92566,666.97266,728.9444,667.7168,727.06702,671.46118L727.06702,671.46118z"/>
	</g>
</g>
<g>
	<g>
		<path class="st0" d="M841.80359,819.90735c2.12427,1.21954,4.15875,2.57898,6.10016,4.07239
			c-0.50592-0.39087-1.0119-0.7818-1.51788-1.17273c3.5722,2.77832,6.77808,5.98615,9.54889,9.56445
			c-0.39093-0.50598-0.78186-1.01196-1.17273-1.51794c0.45782,0.59796,0.90399,1.20398,1.33887,1.81891
			c1.15088,1.62744,2.50153,2.90125,4.48218,3.44672c1.79529,0.49438,4.18591,0.27118,5.77924-0.7561
			c1.60138-1.03241,3.01111-2.56982,3.44666-4.48224c0.4259-1.86981,0.39606-4.15009-0.75604-5.77917
			c-5.22235-7.38446-11.81134-13.6297-19.67853-18.14636c-1.69635-0.97388-3.88727-1.27704-5.77917-0.75604
			c-1.73969,0.47906-3.625,1.82422-4.48224,3.44672C837.22583,813.21771,838.16907,817.82068,841.80359,819.90735
			L841.80359,819.90735z"/>
	</g>
</g>
<g>
	<g>
		<path class="st0" d="M686.58887,922.9364c-22.72711,1.36353-45.4892,2.13123-68.25677,2.28802
			c-6.4812,0.04462-12.96259,0.03912-19.44373-0.01306c-3.92395-0.03162-7.68042,3.47223-7.5,7.5
			c0.18323,4.09058,3.29486,7.46613,7.5,7.5c22.76721,0.18335,45.53851-0.23004,68.28357-1.25385
			c6.47479-0.29144,12.9472-0.633,19.41693-1.02112c3.90887-0.2345,7.6889-3.28168,7.5-7.5
			C693.91583,926.57416,690.78308,922.68475,686.58887,922.9364L686.58887,922.9364z"/>
	</g>
</g>
<g>
	<g>
		<path class="st0" d="M384.02615,961.36761c-2.49387,1.83716-5.17572,3.35956-8.02451,4.57465
			c0.5972-0.25201,1.1944-0.50403,1.7916-0.75604c-3.2533,1.34631-6.64133,2.2608-10.1308,2.73035
			c0.66458-0.08929,1.32919-0.17859,1.9938-0.26788c-2.23364,0.27582-4.47131,0.3678-6.71988,0.26935
			c-3.92477-0.17181-7.67593,3.57245-7.5,7.5c0.18857,4.21051,3.29538,7.31592,7.5,7.5
			c10.06058,0.44049,20.53894-2.61548,28.66058-8.59833c1.62466-1.19684,2.89108-2.46466,3.44669-4.48224
			c0.49438-1.79529,0.27118-4.18585-0.75607-5.77917C392.27701,960.93976,387.40442,958.87903,384.02615,961.36761
			L384.02615,961.36761z"/>
	</g>
</g>
<g>
	<g>
		<path class="st0" d="M227.68562,931.36432c-10.77187-15.4184-21.54373-30.83673-32.3156-46.25513
			c-1.13741-1.62805-2.51244-2.90424-4.48224-3.44672c-1.79527-0.49438-4.18587-0.27118-5.77919,0.7561
			c-3.18849,2.05566-5.09361,6.8219-2.69063,10.26141c10.77187,15.41833,21.54373,30.83673,32.31558,46.25513
			c1.13741,1.62799,2.51244,2.90424,4.48224,3.44672c1.79529,0.49432,4.18587,0.27112,5.77919-0.7561
			C228.18349,939.57007,230.08861,934.80383,227.68562,931.36432L227.68562,931.36432z"/>
	</g>
</g>
<g>
	<g>
		<path class="st0" d="M64.92891,751.8941c-0.75327-17.97736-1.50653-35.95471-2.2598-53.93207
			c-0.16403-3.91461-3.33221-7.68671-7.5-7.5c-3.92284,0.17572-7.67593,3.30139-7.5,7.5
			c0.75327,17.97736,1.50653,35.95471,2.2598,53.93207c0.16403,3.91461,3.33221,7.68665,7.5,7.5
			C61.35174,759.21838,65.10483,756.09271,64.92891,751.8941L64.92891,751.8941z"/>
	</g>
</g>
<g>
	<g>
		<path class="st0" d="M138.62811,404.44025c2.16666-11.46747,5.54048-22.67493,10.06239-33.43356
			c-0.25201,0.5972-0.50403,1.1944-0.75606,1.7916c0.36394-0.85901,0.73393-1.71521,1.11014-2.56891
			c0.84183-1.91031,1.33362-3.68185,0.75606-5.77917c-0.47906-1.73969-1.82422-3.625-3.4467-4.48224
			c-1.7406-0.91965-3.84923-1.38062-5.77919-0.75607c-1.73582,0.56174-3.71312,1.70142-4.48222,3.44672
			c-5.3546,12.15097-9.46152,24.73654-11.9286,37.79407c-0.37997,2.01105-0.30721,3.96222,0.75607,5.77917
			c0.91041,1.55576,2.69425,3.03946,4.48222,3.44669C133.09512,410.51965,137.84926,408.56256,138.62811,404.44025
			L138.62811,404.44025z"/>
	</g>
</g>
<g>
	<g>
		<path class="st0" d="M57.96193,410.31781c0.72325,24.22733,6.5662,48.02155,16.91431,69.92038
			c2.79238,5.9093,5.93995,11.64447,9.41035,17.18243c2.08183,3.32211,6.78429,4.9324,10.26143,2.69064
			c3.32812-2.14569,4.91932-6.70496,2.69064-10.26141c-4.68115-7.47006-8.75365-15.30008-12.19969-23.41388
			c0.25202,0.5972,0.50404,1.1944,0.75606,1.7916c-5.76686-13.6788-9.71209-28.07809-11.70825-42.78842
			c0.0893,0.66458,0.1786,1.32919,0.26791,1.99377c-0.75518-5.6788-1.2218-11.38879-1.39275-17.11511
			c-0.11695-3.91776-3.36594-7.68518-7.5-7.5C61.49868,402.99533,57.83652,406.11685,57.96193,410.31781L57.96193,410.31781z"/>
	</g>
</g>
<g>
	<g>
		<path class="st0" d="M242.37897,640.60962c1.79062,14.54913,2.37985,29.22528,1.76135,43.87109
			c-0.16574,3.9248,3.56813,7.67609,7.5,7.5c4.20529-0.18835,7.32245-3.29529,7.5-7.5
			c0.6185-14.64581,0.02927-29.32196-1.76135-43.87109c-0.25372-2.0614-0.66879-3.77533-2.1967-5.30328
			c-1.30081-1.30078-3.43504-2.2804-5.3033-2.19672c-1.93968,0.08691-3.95142,0.72406-5.3033,2.19672
			C243.32596,636.66772,242.14212,638.6853,242.37897,640.60962L242.37897,640.60962z"/>
	</g>
</g>
<g>
	<g>
		<path class="st0" d="M202.02795,640.64795c-3.41736-30.85699-5.79996-61.82721-7.12656-92.84473
			c-0.37399-8.74414-0.6629-17.49182-0.87137-26.24146c-0.09337-3.91913-3.38283-7.68445-7.5-7.5
			c-3.98349,0.17841-7.60011,3.29803-7.5,7.5c0.73949,31.03687,2.51958,62.04755,5.35249,92.96387
			c0.79863,8.7157,1.68204,17.4234,2.64543,26.12231c0.2269,2.04883,0.68565,3.7923,2.1967,5.30334
			c1.30081,1.30078,3.43504,2.28033,5.3033,2.19666c1.93968-0.08685,3.95142-0.724,5.3033-2.19666
			C201.09081,644.57916,202.24245,642.58472,202.02795,640.64795L202.02795,640.64795z"/>
	</g>
</g>
<g>
	<g>
		<path class="st0" d="M298.53174,314.8208c0.76144-12.94922-2.11035-25.86588-7.80621-37.4783
			c-1.73187-3.53082-7.02838-4.77502-10.26144-2.69061c-3.61789,2.33249-4.54303,6.48486-2.69061,10.26141
			c0.59665,1.21646,1.15878,2.44742,1.68765,3.69482c-0.25201-0.5972-0.50406-1.1944-0.75607-1.7916
			c2.25897,5.431,3.80157,11.11212,4.61252,16.93768c-0.08929-0.66461-0.17862-1.32922-0.26791-1.9938
			c0.57364,4.33359,0.73871,8.69632,0.48209,13.06039c-0.23071,3.92365,3.6145,7.67404,7.5,7.5
			C295.29254,322.12997,298.28458,319.02393,298.53174,314.8208L298.53174,314.8208z"/>
	</g>
</g>
<g>
</g>
<g>
</g>
<g>
</g>
<g>
</g>
<g>
</g>
<g>
</g>
<g>
</g>
<g>
</g>
<g>
</g>
<g>
</g>
<g>
</g>
<g>
</g>
<g>
</g>
<g>
</g>
<g>
</g>
</svg>
